{"glyphs":{"0":{"ha":864,"x_min":29,"x_max":876,"o":"m 727 806 q 799 722 768 771 q 847 614 829 673 q 870 490 865 556 q 867 355 876 424 q 844 260 861 311 q 800 161 827 210 q 736 68 773 113 q 654 -11 700 23 q 553 -65 608 -45 q 434 -85 498 -85 q 315 -68 376 -85 q 174 24 232 -43 q 93 126 124 65 q 45 255 61 186 q 30 395 30 323 q 42 530 29 467 q 93 674 57 604 q 184 800 130 745 q 309 889 238 855 q 463 923 379 923 q 520 919 490 923 q 727 806 645 901 m 812 395 q 817 508 819 451 q 801 620 814 566 q 764 721 788 673 q 705 806 740 768 q 623 869 669 844 q 517 903 576 894 q 463 907 490 907 q 361 892 409 907 q 271 850 313 877 q 195 788 229 824 q 133 709 160 751 q 87 621 106 667 q 58 527 68 574 q 46 427 49 480 q 51 318 44 373 q 74 210 58 263 q 119 113 91 157 q 188 35 147 68 q 282 -14 228 1 q 396 -32 341 -32 q 510 -12 457 -32 q 608 40 564 7 q 687 117 652 73 q 748 208 722 160 q 790 303 774 255 q 812 395 806 351 m 435 509 q 454 503 446 509 q 470 488 463 496 q 480 468 476 479 q 484 449 484 458 q 469 415 484 429 q 435 401 455 401 q 401 415 416 401 q 387 449 387 429 q 391 468 387 458 q 401 488 395 479 q 416 503 408 496 q 435 509 425 509 m 467 453 q 452 440 458 450 q 443 419 445 431 q 460 431 453 422 q 467 453 467 439 z "},"1":{"ha":768,"x_min":-5,"x_max":804,"o":"m 736 93 q 786 38 768 69 q 804 -24 804 6 q 789 -68 804 -51 q 741 -85 770 -85 q 583 -85 667 -85 q 416 -85 500 -85 q 267 -86 331 -86 l 156 -86 q 111 -71 126 -86 q 96 -45 100 -62 q 73 -33 81 -41 q 57 6 57 -18 q 73 59 57 31 q 116 114 88 88 q 182 157 144 139 q 264 176 220 174 q 272 242 269 200 q 276 332 275 284 q 277 429 277 380 l 277 516 q 215 493 245 501 q 157 486 184 486 q 68 522 96 486 q 57 538 62 528 q 30 560 39 547 q 6 649 -5 602 q 34 703 13 677 q 85 743 55 728 q 153 772 111 756 q 239 806 195 789 l 239 806 q 314 835 280 822 q 360 855 347 848 q 378 871 371 861 q 390 890 385 881 q 396 906 394 899 q 397 913 397 913 q 404 920 399 920 q 443 924 425 924 q 538 884 500 924 q 553 866 545 876 q 576 846 566 857 q 612 787 598 823 q 633 707 626 751 q 643 614 641 664 q 644 514 645 565 q 640 413 643 463 q 633 317 636 362 q 627 234 629 273 q 625 165 624 195 q 687 139 659 158 q 736 93 716 121 m 739 -18 q 750 14 750 -5 q 738 59 750 35 q 704 104 726 83 q 650 140 682 125 q 581 154 619 154 q 573 161 574 154 q 571 241 568 189 q 578 356 574 293 q 585 451 582 401 q 590 550 589 500 q 589 648 591 600 q 580 739 587 696 q 560 816 573 781 q 526 873 547 850 q 444 908 494 908 q 429 907 436 908 q 412 905 421 906 q 408 891 411 899 q 400 874 405 883 q 387 856 395 865 q 368 841 379 847 q 322 820 355 833 q 246 791 289 807 l 245 791 q 203 774 224 783 q 161 758 181 766 q 123 742 141 749 q 93 728 106 734 q 47 692 66 715 q 22 646 28 670 q 43 570 14 606 q 119 540 67 540 q 162 545 140 540 q 207 557 185 549 q 247 576 228 566 q 281 596 266 586 q 289 597 284 600 q 294 590 294 595 l 294 560 q 294 502 294 536 q 294 431 294 469 q 293 353 294 393 q 291 278 292 313 q 286 213 289 242 q 279 165 283 183 q 271 159 277 159 q 195 145 232 159 q 128 104 159 131 q 88 55 103 81 q 73 6 73 28 q 118 -31 73 -31 l 378 -31 q 545 -31 463 -31 l 703 -31 q 739 -18 726 -31 z "},"2":{"ha":863,"x_min":13,"x_max":905,"o":"m 896 54 q 882 -18 905 12 q 828 -55 863 -42 q 753 -75 793 -68 q 673 -83 713 -81 q 602 -85 633 -85 q 521 -87 570 -86 q 420 -87 473 -87 q 233 -79 266 -87 q 153 -26 168 -64 q 111 24 117 -7 q 119 73 107 47 q 152 126 131 100 q 202 176 174 152 q 258 220 230 200 q 307 254 279 235 q 362 293 334 273 q 416 335 390 313 q 463 378 442 357 q 494 420 483 399 q 505 461 506 441 q 498 476 505 470 q 483 486 492 482 q 463 490 473 489 q 446 492 453 492 q 397 477 419 492 q 352 446 374 463 q 324 425 338 435 q 294 406 310 414 q 260 392 278 397 q 220 387 241 387 q 156 398 191 387 q 87 452 114 413 q 37 510 56 474 q 16 589 18 545 q 25 669 13 629 q 62 745 37 709 q 126 813 87 781 q 213 870 164 845 q 352 919 280 904 q 500 918 424 933 q 612 874 559 906 q 704 798 665 843 q 773 717 745 762 q 817 581 814 648 q 797 450 819 514 q 733 327 774 387 q 648 212 692 267 q 702 209 674 212 q 755 197 729 205 q 802 175 781 189 q 839 138 824 161 q 896 54 884 108 m 831 30 q 842 89 849 54 q 815 142 835 121 q 769 175 795 163 q 713 191 743 186 q 656 195 684 195 q 599 192 625 195 q 555 185 572 189 q 546 188 549 183 q 547 198 543 193 q 615 283 581 239 q 679 371 650 326 q 729 461 708 416 q 758 554 750 507 q 758 649 766 602 q 721 746 750 697 q 679 801 703 775 q 626 846 655 826 q 565 880 597 866 q 496 901 532 895 q 356 903 425 916 q 220 855 288 889 q 137 801 174 831 q 77 737 101 771 q 41 665 52 703 q 32 589 29 628 q 41 543 33 565 q 60 503 48 521 q 89 472 73 485 q 124 452 104 458 q 182 441 154 441 q 218 446 201 441 q 249 458 235 450 q 277 476 264 467 q 304 496 291 486 q 353 531 328 515 q 408 546 377 546 q 466 530 437 546 q 521 463 519 503 q 510 418 522 441 q 478 372 498 395 q 431 326 458 349 q 375 282 404 304 q 318 242 347 261 q 267 206 290 222 q 211 163 238 186 q 165 116 184 140 q 135 69 145 92 q 127 27 124 46 q 199 -26 135 -9 q 261 -31 215 -29 q 382 -33 307 -33 q 483 -32 435 -33 q 564 -31 531 -31 q 632 -29 593 -31 q 710 -21 671 -27 q 781 -4 748 -16 q 831 30 814 8 z "},"3":{"ha":806,"x_min":12,"x_max":826,"o":"m 815 534 q 768 456 802 491 q 688 401 734 421 q 715 380 703 392 q 738 355 728 368 q 778 314 762 337 q 804 263 794 291 q 809 161 821 213 q 760 62 798 109 q 617 -49 701 -11 q 435 -87 534 -87 q 361 -81 398 -87 q 292 -68 330 -77 q 218 -46 255 -60 q 149 -12 182 -33 q 92 39 116 9 l 92 40 q 12 210 12 103 q 52 331 12 290 q 84 353 66 345 q 121 363 102 361 q 161 363 140 366 q 199 352 181 360 q 409 289 345 289 q 430 291 422 289 q 441 297 437 294 q 447 304 446 300 q 449 309 448 307 q 447 343 453 329 q 420 356 435 351 l 392 367 q 372 374 385 370 q 347 385 359 378 q 326 400 335 391 q 315 420 316 408 q 293 434 303 426 q 278 453 282 441 q 278 477 274 466 q 291 497 282 488 q 311 515 300 507 q 332 530 322 523 q 370 557 351 542 q 399 587 390 572 q 336 579 369 587 q 273 564 302 572 q 241 556 256 559 q 217 552 227 553 q 154 568 183 552 q 104 612 124 583 q 77 637 87 623 q 50 690 57 660 q 48 753 43 720 q 76 822 55 793 q 125 871 96 851 q 188 903 154 891 q 256 921 222 915 q 320 930 290 928 q 373 932 351 932 q 445 927 408 931 q 520 913 482 923 q 594 888 557 904 q 664 846 631 871 q 714 798 690 827 q 763 746 740 777 q 801 681 786 715 q 821 608 817 646 q 815 534 826 570 m 762 576 q 767 648 772 612 q 746 719 762 684 q 706 782 730 753 q 654 833 682 812 q 587 873 622 858 q 515 898 551 888 q 443 910 479 907 q 373 915 406 914 q 322 913 352 915 q 261 905 293 911 q 197 888 229 899 q 137 859 164 878 q 90 814 110 841 q 64 750 71 787 q 65 694 59 720 q 90 647 72 667 q 129 617 106 627 q 179 606 153 607 q 200 611 186 608 q 231 618 214 614 l 231 618 q 295 634 261 626 q 357 642 329 642 q 416 618 401 642 q 419 590 424 604 q 402 564 414 576 q 374 539 391 551 q 341 516 357 527 q 326 506 336 512 q 309 493 317 500 q 295 477 300 486 q 294 458 290 469 q 317 437 298 446 q 359 420 336 429 q 401 404 380 412 q 438 382 422 395 q 463 351 454 369 q 465 306 471 332 q 409 273 457 273 q 193 336 342 273 q 161 346 178 342 q 126 347 144 349 q 93 339 109 346 q 64 319 77 332 q 28 210 28 283 q 41 134 28 168 q 77 76 54 101 q 129 34 100 52 q 192 5 159 17 q 260 -15 225 -7 q 326 -27 294 -22 q 362 -32 344 -31 q 397 -33 380 -33 q 572 4 492 -33 q 709 110 652 40 q 755 202 744 153 q 750 296 766 250 q 723 346 741 323 q 680 387 705 370 q 626 413 655 404 q 565 422 596 422 q 558 430 558 423 q 565 439 557 436 q 627 450 596 440 q 685 478 659 460 q 732 521 712 496 q 762 576 752 546 z "},"4":{"ha":958,"x_min":42,"x_max":991,"o":"m 972 443 q 990 385 989 414 q 976 328 991 355 q 957 303 969 315 q 927 282 944 292 q 891 266 911 272 q 851 260 871 260 q 823 264 838 260 q 825 238 823 257 q 828 192 827 219 q 828 134 829 165 q 821 70 827 102 q 805 7 816 37 q 774 -45 793 -22 q 673 -92 736 -92 q 624 -79 645 -92 q 587 -42 602 -66 q 563 -23 574 -35 q 511 255 500 45 q 443 249 475 251 q 383 248 412 248 q 215 270 281 248 q 117 338 150 292 q 57 420 73 370 q 45 516 42 466 q 63 616 48 566 q 102 714 78 667 q 154 800 127 761 q 210 868 182 840 q 260 908 237 896 q 294 922 277 918 q 330 926 312 926 q 386 912 360 926 q 427 873 411 899 q 465 833 451 858 q 482 739 488 793 q 441 625 475 685 q 412 544 411 572 q 438 540 425 541 q 463 539 452 539 q 500 540 481 539 q 537 539 518 541 q 533 608 535 568 q 533 688 530 648 q 547 766 536 729 q 581 829 557 804 q 673 866 614 866 q 781 823 747 865 q 791 809 786 818 q 819 785 808 800 q 843 738 836 766 q 851 680 850 711 q 849 615 852 648 q 841 551 846 582 q 890 529 867 545 q 928 490 913 513 q 954 468 942 480 q 972 443 965 456 m 924 374 q 936 423 937 397 q 921 472 935 448 q 873 520 903 501 q 813 539 843 539 q 787 535 802 539 q 781 538 783 535 q 779 545 778 541 q 794 644 789 600 q 797 720 798 687 q 788 775 795 752 q 768 813 781 798 q 673 850 739 849 q 593 818 623 850 q 562 759 571 794 q 549 685 552 724 q 549 608 547 646 q 553 542 551 570 q 552 526 555 530 q 546 522 550 522 q 508 524 528 525 q 463 523 489 523 q 433 524 448 523 q 405 528 418 525 q 381 538 392 532 q 364 555 370 545 q 389 671 343 591 q 428 777 421 727 q 413 863 434 827 q 378 898 400 885 q 330 910 357 910 q 298 906 314 910 q 268 893 283 902 q 219 854 246 882 q 166 790 193 827 q 116 707 140 752 q 78 613 93 661 q 61 517 64 565 q 73 425 58 469 q 160 332 94 363 q 345 302 227 302 q 427 305 384 302 q 521 315 470 308 q 527 313 524 315 q 530 306 530 311 q 531 103 520 184 q 575 -12 543 22 q 635 -38 599 -38 q 724 3 690 -38 q 751 52 741 24 q 767 110 762 79 q 774 172 773 141 q 775 231 776 203 q 771 280 774 258 q 766 312 768 301 q 769 319 765 317 q 777 321 773 322 q 813 315 795 315 q 849 320 831 315 q 881 334 867 326 q 907 352 896 342 q 924 374 918 363 z "},"5":{"ha":841,"x_min":31,"x_max":880,"o":"m 880 745 q 868 666 880 699 q 836 610 856 633 q 788 573 815 587 q 728 552 760 559 q 662 542 696 545 q 593 540 627 540 q 701 458 661 507 q 798 234 798 376 q 784 140 798 184 q 744 60 769 96 q 684 -5 718 24 q 610 -53 650 -33 q 527 -82 570 -72 q 441 -92 484 -92 q 261 -62 339 -92 q 135 28 184 -32 q 64 115 90 64 q 38 191 44 153 q 38 267 31 230 q 66 336 45 303 q 119 395 86 369 q 197 420 151 420 q 239 415 216 420 q 283 401 262 410 q 323 378 305 392 q 351 347 342 365 q 370 331 362 339 q 385 315 378 323 q 393 269 401 291 q 382 230 386 248 q 378 198 378 212 q 426 228 408 199 q 441 270 438 247 q 437 310 444 294 q 414 347 427 330 q 356 387 387 368 q 292 422 324 405 q 234 456 262 439 q 182 491 205 472 q 161 516 172 498 q 153 523 157 519 q 144 529 149 526 q 121 557 132 538 q 102 602 111 576 q 88 656 94 627 q 81 715 83 686 q 90 814 77 771 q 127 882 102 857 q 172 903 138 893 q 254 920 205 913 q 359 932 302 928 q 473 937 416 937 q 526 936 495 937 q 591 931 557 935 q 662 920 626 927 q 729 902 697 913 q 787 875 761 891 q 827 836 812 859 q 880 745 880 800 m 389 609 q 486 599 439 604 q 580 594 534 594 q 766 640 707 594 q 825 783 825 685 q 807 836 825 814 q 758 874 788 859 q 689 898 727 889 q 612 912 651 907 q 536 919 572 917 q 473 920 500 920 q 358 916 414 920 q 255 904 301 911 q 178 888 210 897 q 139 871 147 879 q 105 808 116 848 q 97 717 94 768 q 105 658 99 686 q 118 607 111 630 q 136 566 126 583 q 154 542 145 549 q 204 508 177 524 q 262 475 232 492 q 319 443 291 460 q 372 408 347 427 q 418 367 397 389 q 452 317 439 345 q 458 294 456 307 q 457 269 459 282 q 451 243 456 256 q 440 219 447 230 q 376 181 416 181 q 334 201 347 182 q 325 224 326 211 q 325 253 323 238 q 331 284 326 269 q 340 313 335 299 q 333 344 345 327 q 309 367 324 356 q 276 386 294 378 q 237 399 258 394 q 197 404 217 404 q 130 382 157 404 q 81 328 100 358 q 55 263 62 297 q 54 193 48 229 q 79 122 60 157 q 118 66 93 95 q 181 15 142 38 q 274 -23 220 -8 q 403 -38 328 -38 q 485 -28 444 -38 q 564 0 526 -18 q 635 45 602 18 q 692 106 668 72 q 730 182 716 141 q 744 272 744 224 q 729 369 744 327 q 690 442 715 411 q 634 496 666 473 q 568 534 603 518 q 498 560 533 549 q 431 580 463 571 q 408 587 419 583 q 385 593 396 590 q 380 596 382 594 q 380 602 379 599 q 383 607 380 604 q 389 609 385 609 z "},"6":{"ha":868,"x_min":72,"x_max":879,"o":"m 815 391 q 864 307 850 354 q 875 211 879 260 q 848 112 871 161 q 783 21 825 63 q 649 -65 729 -35 q 476 -95 569 -95 q 386 -87 429 -95 q 305 -63 343 -79 q 236 -26 267 -48 q 183 23 205 -5 l 182 23 q 140 66 159 43 q 90 166 106 113 q 73 276 73 219 q 85 391 72 333 q 122 505 98 449 q 179 612 146 561 q 252 707 212 663 q 369 813 309 770 q 485 884 429 857 q 592 923 542 911 q 681 935 642 935 q 742 921 714 935 q 791 878 770 907 q 835 829 818 860 q 854 762 852 799 q 851 715 857 740 q 831 668 846 690 q 792 628 817 646 q 731 601 768 610 q 642 572 686 591 q 558 530 597 554 q 784 420 694 526 q 800 406 793 413 l 815 391 m 734 71 q 794 156 772 110 q 820 249 816 203 q 810 339 824 296 q 765 418 797 383 q 546 514 677 514 q 441 502 498 514 q 433 505 435 500 q 432 513 430 509 q 463 548 439 528 q 523 589 488 568 q 601 627 558 609 q 689 655 644 644 q 744 679 722 663 q 779 714 766 694 q 797 756 792 734 q 800 800 802 779 q 789 844 798 823 q 765 882 781 865 q 729 908 750 898 q 681 918 707 918 q 590 904 641 918 q 485 864 540 891 q 373 795 429 837 q 264 696 316 753 q 193 603 225 653 q 138 497 161 552 q 102 386 115 443 q 90 275 90 330 q 106 170 91 220 q 153 77 121 119 q 204 27 174 49 q 271 -9 234 5 q 350 -33 307 -24 q 439 -41 393 -41 q 605 -12 528 -41 q 734 71 682 18 m 473 298 q 492 292 483 298 q 507 277 500 286 q 517 258 513 269 q 520 239 520 248 q 506 205 520 219 q 473 191 492 191 q 439 205 453 191 q 425 239 425 219 q 428 258 425 248 q 438 277 432 269 q 454 292 445 286 q 473 298 463 298 m 504 242 q 489 229 496 239 q 480 208 482 220 q 497 220 490 211 q 504 242 504 229 z "},"7":{"ha":785,"x_min":3,"x_max":834,"o":"m 808 350 q 819 282 834 313 q 797 259 811 269 q 763 243 782 250 q 724 235 745 237 q 683 232 703 232 q 625 237 654 232 q 476 -51 527 24 q 428 -89 460 -75 q 357 -103 395 -103 q 309 -95 330 -103 q 274 -71 287 -86 q 264 -54 269 -64 q 236 -33 245 -45 q 222 34 214 -7 q 245 133 233 87 q 273 229 257 179 q 222 243 243 231 q 189 279 202 254 q 143 332 159 294 q 146 409 124 374 q 189 444 161 431 q 252 458 218 457 q 296 456 275 458 q 345 453 318 454 q 357 480 351 465 q 369 512 363 496 q 377 545 374 528 q 379 574 380 561 q 296 572 334 574 q 217 569 258 569 q 176 571 197 569 q 136 579 155 573 q 100 598 117 586 q 71 629 83 610 q 12 732 24 658 q 37 834 3 791 q 106 883 63 865 q 200 912 149 902 q 306 926 252 922 q 406 930 359 930 q 596 912 524 930 q 706 854 669 893 q 713 847 710 851 q 720 837 716 842 q 744 817 734 827 q 769 766 763 797 q 772 700 775 736 q 759 624 769 663 q 737 549 749 585 q 712 482 725 513 q 692 432 700 452 q 711 426 700 430 q 732 417 722 422 q 753 405 743 412 q 770 388 763 397 q 774 382 772 385 q 777 376 776 379 q 808 350 799 363 m 766 328 q 757 378 777 349 q 735 397 749 389 q 704 412 722 406 q 669 421 687 418 q 634 424 650 424 q 624 426 630 424 q 621 435 618 427 q 643 487 629 455 q 671 558 656 519 q 699 639 686 597 q 717 720 711 681 q 719 791 723 758 q 694 843 714 823 q 590 896 659 878 q 406 914 521 914 q 360 913 389 913 q 298 909 332 912 q 228 900 264 906 q 158 884 192 895 q 96 859 125 874 q 50 823 68 844 q 28 735 20 787 q 46 679 33 701 q 78 644 59 656 q 123 628 98 632 q 179 623 149 623 q 257 626 218 623 q 340 629 296 629 q 387 605 374 629 q 395 565 397 589 q 388 518 394 542 q 372 473 381 494 q 357 440 363 452 q 349 436 354 436 q 303 439 325 437 q 252 441 281 440 q 197 430 222 441 q 160 399 172 418 q 158 338 142 373 q 192 296 172 308 q 248 283 212 283 q 270 284 258 283 q 300 287 282 286 q 307 283 304 287 q 307 275 309 279 q 285 212 295 243 q 267 152 275 182 q 252 93 259 123 q 239 31 245 63 q 249 -22 233 -2 q 277 -41 259 -35 q 319 -48 296 -48 q 352 -45 336 -48 q 382 -36 368 -41 q 407 -22 396 -30 q 425 -3 418 -14 q 452 40 437 15 q 481 93 467 65 q 510 150 496 121 q 537 205 524 179 q 559 253 549 231 q 576 288 570 274 q 583 293 578 293 q 613 290 597 293 q 646 287 628 287 q 724 298 691 287 q 766 328 757 309 z "},"8":{"ha":789,"x_min":16,"x_max":819,"o":"m 697 367 q 744 316 724 345 q 774 254 764 288 q 781 154 789 204 q 742 60 772 104 q 681 -5 718 24 q 601 -55 645 -34 q 507 -87 557 -76 q 407 -98 458 -98 q 326 -91 366 -98 q 248 -67 286 -83 q 176 -27 210 -52 q 113 29 141 -3 q 50 101 74 62 q 20 182 26 140 q 18 232 16 203 q 34 293 20 260 q 79 360 48 326 q 165 427 111 395 q 128 464 144 443 q 77 521 96 488 q 53 594 58 555 q 56 668 48 631 q 84 740 64 705 q 136 806 104 774 q 208 863 167 837 q 319 915 261 897 q 436 932 376 932 q 517 923 477 932 q 593 899 557 915 q 660 860 629 883 q 715 809 691 838 q 770 747 749 781 q 800 678 792 714 q 787 515 819 589 q 674 392 754 441 q 686 380 680 386 q 697 367 692 374 m 691 107 q 727 195 720 149 q 720 287 734 241 q 676 366 707 332 q 606 416 646 401 q 601 424 602 418 q 606 431 600 429 q 729 549 693 476 q 746 712 766 623 q 708 792 736 755 q 637 856 679 829 q 543 900 595 884 q 436 916 492 916 q 323 899 379 916 q 217 850 268 882 q 148 795 178 825 q 99 733 119 766 q 72 666 80 701 q 69 596 64 631 q 112 502 77 542 q 203 444 147 461 q 209 437 208 442 q 204 429 210 431 q 67 319 111 382 q 36 185 24 257 q 66 106 43 144 q 127 38 90 68 q 211 -12 164 8 q 312 -40 258 -33 q 414 -42 360 -47 q 519 -17 468 -36 q 615 32 570 1 q 691 107 661 63 m 374 262 q 398 258 386 262 q 420 249 410 255 q 438 234 431 243 q 446 216 445 226 q 441 192 448 203 q 423 172 434 180 q 398 159 412 164 q 373 155 385 155 q 350 158 361 155 q 329 168 338 161 q 313 183 319 174 q 304 203 306 192 q 309 227 302 216 q 326 245 315 237 q 350 256 336 252 q 374 262 363 260 m 486 637 q 492 638 489 639 q 497 633 496 637 q 493 623 499 627 q 486 620 492 622 q 470 614 479 617 q 448 609 460 612 q 423 607 436 607 q 370 624 390 607 q 368 629 368 625 q 369 635 367 633 q 380 637 374 640 q 422 624 396 624 q 445 626 434 624 q 466 630 456 628 q 480 635 475 633 q 486 637 486 637 m 423 196 q 429 205 427 201 q 408 208 418 208 q 388 203 397 207 q 371 191 378 199 q 359 173 363 184 q 393 175 374 168 q 423 196 412 182 z "},"9":{"ha":870,"x_min":33,"x_max":842,"o":"m 774 762 q 825 664 808 716 q 842 555 841 611 q 829 442 842 500 q 792 330 816 385 q 734 224 768 275 q 662 131 701 174 q 544 26 604 68 q 427 -43 484 -17 q 320 -81 370 -70 q 231 -93 269 -93 q 169 -80 197 -93 q 120 -36 141 -66 q 76 12 93 -18 q 56 77 59 42 q 60 124 55 100 q 80 171 66 149 q 119 210 94 193 q 181 237 144 228 q 274 266 229 248 q 353 305 319 285 q 134 405 224 309 q 120 420 128 412 q 96 443 111 428 q 47 525 62 479 q 37 620 33 571 q 64 717 41 669 q 128 807 87 766 q 263 892 183 862 q 436 922 343 922 q 528 913 484 922 q 610 890 572 905 q 680 853 648 875 q 732 804 711 831 q 774 762 758 783 m 612 180 q 683 272 650 222 q 738 376 715 322 q 773 485 761 429 q 785 594 786 541 q 769 697 785 648 q 722 789 754 747 q 672 838 702 817 q 605 875 642 860 q 526 898 568 890 q 436 905 483 905 q 269 877 347 905 q 140 795 192 848 q 79 711 101 757 q 54 620 58 665 q 63 531 50 574 q 109 454 77 488 q 208 382 154 406 q 328 359 262 359 q 433 372 376 359 q 441 369 437 372 q 443 360 446 366 q 411 325 435 345 q 352 286 387 305 q 273 248 317 266 q 185 220 230 231 q 130 197 152 212 q 94 162 107 182 q 77 121 81 143 q 73 79 72 99 q 84 33 75 54 q 109 -4 93 12 q 145 -30 124 -20 q 193 -39 167 -39 q 284 -26 233 -39 q 390 14 335 -13 q 503 82 446 41 q 612 180 559 123 m 500 628 q 506 630 502 630 q 511 627 509 631 q 511 616 517 622 l 503 610 q 483 599 496 606 q 452 588 470 593 q 411 583 433 583 q 330 602 372 583 q 327 613 323 606 q 331 617 328 616 q 338 617 334 618 q 412 599 374 599 q 448 603 432 599 q 475 613 464 608 q 493 623 487 619 l 500 628 z "},"B":{"ha":828,"x_min":24,"x_max":854,"o":"m 802 352 q 843 262 833 313 q 840 160 854 211 q 793 63 827 107 q 709 -13 759 19 q 597 -61 660 -44 q 465 -79 535 -79 q 432 -78 455 -79 q 379 -74 409 -77 q 315 -67 349 -72 q 248 -53 281 -62 q 187 -32 215 -45 q 140 -1 159 -20 q 132 8 136 3 q 123 20 127 14 q 112 28 117 24 q 102 36 106 32 q 71 79 84 54 q 50 136 58 105 q 35 199 41 166 q 27 266 30 233 q 25 329 25 298 q 25 385 24 359 q 32 491 26 437 q 44 595 37 545 q 62 692 52 646 q 84 775 73 738 q 109 838 96 812 q 135 876 122 864 q 213 913 163 900 q 326 926 262 926 q 410 920 369 926 q 490 903 452 914 q 561 876 528 892 q 622 839 595 859 q 669 793 648 819 q 727 727 706 763 q 753 653 748 692 q 746 581 757 616 q 711 515 735 546 q 684 488 699 501 q 651 465 669 475 q 721 430 694 451 q 765 388 749 409 q 802 352 786 372 m 787 201 q 789 296 798 249 q 751 380 780 343 q 660 445 716 422 q 527 467 603 467 l 518 467 q 450 460 486 460 q 428 461 439 460 q 405 463 416 462 q 399 467 401 464 q 398 473 397 469 q 406 479 399 479 q 429 477 418 478 q 451 476 439 476 q 571 499 516 476 q 660 564 627 522 q 692 624 682 592 q 698 689 702 656 q 672 762 694 728 q 612 826 650 797 q 554 861 587 845 q 484 887 522 876 q 406 904 447 898 q 325 909 366 909 q 218 897 264 909 q 146 863 171 885 q 121 827 134 852 q 98 765 109 801 q 77 684 87 728 q 60 589 68 639 q 47 487 52 539 q 41 384 43 435 q 57 172 38 258 q 114 48 75 85 q 169 15 134 28 q 247 -7 204 1 q 336 -20 290 -16 q 427 -24 383 -24 q 542 -10 484 -24 q 650 33 600 4 q 736 103 699 61 q 787 201 772 146 m 449 286 q 473 282 461 286 q 496 273 486 279 q 513 258 506 267 q 522 239 520 250 q 511 209 524 224 q 486 189 502 197 q 454 178 470 180 q 428 182 441 178 q 405 192 415 185 q 388 207 395 198 q 380 226 381 216 q 391 258 378 243 q 414 277 399 269 q 449 286 429 284 m 406 654 q 377 645 391 654 q 353 620 363 635 q 342 618 349 614 q 339 629 335 621 q 369 659 351 648 q 406 671 387 670 q 473 633 447 671 q 475 627 475 630 q 471 621 474 623 q 465 620 469 620 q 460 623 462 620 q 406 654 438 654 m 498 220 q 504 230 502 222 q 483 231 494 232 q 463 227 473 231 q 446 215 454 222 q 435 197 439 208 q 448 195 441 195 q 475 201 462 195 q 498 220 489 208 z "},"C":{"ha":812,"x_min":25,"x_max":834,"o":"m 764 412 q 789 391 777 404 q 811 359 801 378 q 828 313 821 340 q 834 250 834 286 q 798 110 834 171 q 682 -7 762 48 q 571 -63 631 -44 q 448 -82 511 -82 q 254 -35 349 -82 q 207 -5 229 -23 q 166 35 185 13 q 105 103 131 64 q 61 189 79 142 q 35 286 44 235 q 26 387 26 336 q 32 487 25 438 q 54 578 39 536 q 167 772 93 692 q 347 896 241 852 q 499 928 424 928 q 619 904 564 928 q 715 838 675 881 q 721 832 718 834 q 726 826 723 829 q 740 813 733 819 q 753 800 747 806 q 815 690 796 753 q 828 553 834 627 q 820 522 827 538 q 800 490 812 505 q 771 463 788 475 q 734 444 755 450 q 764 412 751 431 m 635 43 q 700 98 673 71 q 745 155 728 125 q 771 217 763 184 q 780 287 780 250 q 769 365 780 333 q 741 416 758 396 q 702 444 724 435 q 659 453 680 453 q 562 446 600 452 q 503 431 525 439 q 473 414 481 423 q 462 399 464 406 q 447 349 456 373 q 427 300 437 324 q 416 296 423 294 q 412 307 408 300 l 414 313 q 421 330 417 320 q 430 352 425 340 q 438 376 434 363 q 450 422 444 399 q 457 471 456 445 q 458 515 458 493 q 454 559 457 537 q 449 586 452 572 q 443 609 446 599 q 439 627 441 620 l 437 633 q 438 640 436 637 q 445 644 440 644 q 453 638 451 644 q 459 616 453 637 q 470 562 465 596 q 488 530 473 544 q 525 508 503 517 q 574 494 547 498 q 628 490 601 490 q 650 490 639 490 q 671 492 661 491 q 710 505 692 495 q 742 530 728 515 q 764 561 756 544 q 774 593 772 577 q 762 722 779 663 q 703 826 744 781 q 613 889 665 867 q 499 911 561 911 q 353 880 426 911 q 179 760 251 838 q 70 573 108 682 q 48 480 56 532 q 44 375 41 429 q 57 267 46 321 q 91 164 68 212 q 145 78 113 117 q 224 18 178 40 q 410 -28 314 -28 q 528 -9 470 -28 q 635 43 586 9 m 511 484 q 512 468 512 476 l 512 452 q 528 456 519 454 q 546 460 536 458 q 511 484 525 470 z "},"D":{"ha":781,"x_min":26,"x_max":805,"o":"m 693 715 q 750 636 726 680 q 787 543 774 592 q 803 440 800 493 q 796 331 805 387 q 764 214 786 270 q 710 109 742 157 q 638 21 678 60 q 551 -43 597 -18 q 506 -63 531 -54 q 452 -77 481 -71 q 392 -86 423 -83 q 328 -89 360 -89 q 178 -67 239 -89 q 93 -7 117 -46 q 49 41 63 13 q 37 94 42 56 q 29 184 32 132 q 26 301 26 237 q 28 433 26 366 q 36 567 31 500 q 49 693 41 634 q 69 800 58 753 q 96 876 81 848 q 138 913 115 909 q 190 919 164 917 q 241 920 216 920 q 356 910 303 920 q 451 885 408 901 q 529 850 494 869 q 589 811 563 831 q 633 774 615 791 q 662 746 651 757 q 680 729 673 736 q 693 715 688 721 m 742 372 q 748 477 751 425 q 733 575 746 528 q 698 665 721 623 q 643 742 675 707 q 598 783 629 756 q 516 837 566 810 q 398 884 467 864 q 241 904 329 904 q 191 902 216 904 q 140 897 166 900 q 111 868 126 895 q 84 794 96 841 q 65 689 73 747 q 52 564 57 631 q 45 431 47 498 q 43 302 43 365 q 46 187 43 239 q 53 98 49 135 q 64 48 58 62 q 99 9 75 25 q 154 -17 123 -7 q 221 -31 185 -26 q 290 -35 256 -35 q 352 -32 321 -35 q 410 -23 382 -29 q 462 -9 438 -18 q 505 9 486 -1 q 589 72 550 34 q 659 156 628 109 q 711 258 690 203 q 742 372 732 313 m 401 499 q 420 493 411 499 q 435 478 429 487 q 445 458 441 469 q 448 439 448 448 q 434 405 448 419 q 401 391 420 391 q 367 405 381 391 q 353 439 353 419 q 356 458 353 448 q 367 478 360 469 q 382 493 373 487 q 401 499 391 499 m 408 408 q 427 421 419 412 q 431 444 435 431 q 417 430 423 440 q 408 408 410 420 z "},"E":{"ha":735,"x_min":23,"x_max":760,"o":"m 747 197 q 751 94 760 142 q 713 9 743 46 q 664 -37 692 -19 q 603 -67 635 -56 q 533 -82 570 -78 q 457 -87 496 -87 q 362 -82 412 -87 q 266 -65 313 -78 q 177 -31 218 -53 q 109 26 136 -9 q 34 152 45 75 q 24 278 26 208 q 27 422 23 349 q 41 568 32 496 q 64 702 51 640 q 94 810 77 764 q 129 878 111 857 q 211 919 152 904 q 357 934 271 934 q 446 929 400 934 q 532 914 491 924 q 605 890 572 905 q 654 854 637 875 q 665 839 661 847 q 692 817 682 829 q 725 758 714 790 q 734 693 735 726 q 720 631 732 661 q 682 579 707 601 q 587 524 644 545 q 597 509 594 516 q 648 427 642 485 q 622 361 651 391 q 674 314 652 343 q 715 272 694 300 q 747 197 736 244 m 663 56 q 697 135 689 91 q 693 231 705 180 q 666 297 684 271 q 626 338 648 323 q 583 359 604 353 q 546 366 561 366 l 537 366 q 464 339 505 349 q 382 330 423 330 q 355 332 368 330 q 328 335 341 333 q 321 345 320 336 q 331 351 323 351 q 356 348 343 349 q 383 347 370 347 q 436 351 410 347 q 487 362 463 355 q 532 381 511 370 q 566 404 552 391 q 593 463 595 431 q 496 546 587 541 q 437 536 467 540 q 374 533 406 533 q 355 533 364 533 q 337 534 347 534 q 331 537 334 534 q 330 543 329 539 q 338 551 330 551 q 356 550 347 550 l 374 550 q 523 570 457 550 q 633 629 589 590 q 667 675 655 648 q 679 732 678 703 q 671 791 680 762 q 642 844 662 820 q 600 873 628 860 q 535 896 572 886 q 452 912 497 906 q 357 918 406 918 q 218 904 275 918 q 141 867 161 891 q 108 802 123 847 q 79 695 92 756 q 57 563 66 634 q 44 418 48 491 q 41 277 40 346 q 50 154 42 209 q 75 86 56 115 q 122 37 94 58 q 185 3 150 16 q 259 -19 220 -11 q 339 -30 298 -26 q 419 -33 380 -33 q 485 -30 451 -33 q 550 -17 518 -26 q 611 10 583 -7 q 663 56 640 28 z "},"F":{"ha":719,"x_min":24,"x_max":747,"o":"m 674 825 q 730 750 714 797 q 735 652 747 703 q 719 606 730 627 q 692 569 707 585 q 656 543 676 553 q 614 529 637 533 q 616 525 616 526 q 635 513 625 520 q 649 499 645 507 q 640 437 665 472 q 608 413 631 423 q 551 399 585 404 q 461 395 505 393 q 519 328 497 367 q 548 246 541 290 q 547 156 555 202 q 514 66 538 109 q 418 -44 474 -6 q 296 -83 362 -83 q 193 -58 244 -83 q 167 -41 179 -52 q 144 -14 155 -30 q 59 136 90 20 q 36 259 44 192 q 26 395 28 326 q 27 532 24 464 q 40 657 31 600 q 62 760 49 715 q 91 829 75 805 q 193 901 123 876 q 359 926 262 926 q 428 922 393 926 q 495 913 463 919 q 557 898 528 907 q 612 878 587 888 q 674 825 651 859 m 542 578 q 598 589 574 578 q 639 617 622 600 q 666 656 656 635 q 681 699 677 677 q 684 745 686 721 q 673 791 682 769 q 648 832 665 814 q 605 863 631 851 q 551 881 581 873 q 489 895 522 889 q 422 904 456 901 q 355 907 389 907 q 294 904 329 907 q 223 892 259 901 q 156 865 188 883 q 104 819 124 848 q 77 753 89 797 q 56 652 64 709 q 44 528 48 595 q 43 393 41 461 q 52 259 45 325 q 75 140 60 194 q 112 44 90 81 q 162 -5 134 7 q 260 -28 212 -28 q 372 8 320 -28 q 462 112 424 44 q 494 205 487 157 q 490 297 500 254 q 454 378 480 341 q 387 437 428 414 q 301 469 329 447 q 298 474 298 471 q 300 480 298 477 q 305 484 301 483 q 311 481 309 484 q 340 467 323 473 q 376 456 357 460 q 416 451 395 452 q 454 449 436 449 q 499 451 472 449 q 551 462 527 454 q 590 486 576 470 q 597 528 605 501 q 565 553 588 543 q 513 568 542 563 q 453 576 484 574 q 399 578 422 578 l 380 578 q 364 577 372 578 q 356 585 356 577 q 357 591 355 588 q 363 593 359 593 q 379 595 370 595 q 399 595 389 595 q 425 595 409 595 q 460 592 441 594 q 500 587 479 591 q 542 578 522 584 z "},"G":{"ha":828,"x_min":23,"x_max":848,"o":"m 848 211 q 848 159 848 189 q 845 95 848 128 q 834 30 842 62 q 810 -31 826 -3 q 770 -77 795 -58 q 709 -100 745 -96 q 625 -91 665 -107 q 555 -37 585 -75 q 510 11 530 -18 q 477 -21 498 -5 q 431 -50 456 -37 q 376 -71 405 -63 q 319 -79 347 -79 q 248 -63 279 -79 q 163 3 200 -41 q 103 72 129 31 q 60 160 77 112 q 34 261 43 208 q 24 369 25 315 q 30 474 23 422 q 52 572 37 526 q 102 690 72 635 q 168 786 132 744 q 247 858 205 828 q 336 901 290 887 q 473 921 407 921 q 597 899 542 921 q 693 834 653 877 q 699 828 696 831 q 705 821 701 825 q 719 808 713 814 q 731 797 726 802 q 791 688 773 751 q 803 547 809 625 q 781 488 801 517 q 732 443 762 459 q 776 401 758 429 q 801 381 788 394 q 824 345 813 368 q 841 290 834 323 q 848 211 848 258 m 669 -46 q 723 -24 701 -42 q 759 20 745 -7 q 781 79 773 46 q 791 145 788 111 q 793 211 793 178 q 793 269 793 243 q 782 350 793 317 q 755 403 772 382 q 718 432 739 423 q 675 441 696 441 q 630 439 652 441 q 586 431 608 437 q 543 410 564 424 q 500 374 522 397 q 482 345 491 364 q 467 307 473 326 q 456 274 460 288 l 452 260 q 444 254 450 254 q 435 262 435 254 q 437 294 436 273 q 438 343 437 315 q 440 401 439 370 q 442 460 441 431 q 441 485 442 469 q 437 519 439 500 q 433 556 435 537 q 428 591 430 575 q 424 617 426 607 q 422 629 422 628 q 425 636 422 633 q 431 639 427 639 q 439 633 436 639 l 440 625 q 445 607 442 618 q 450 582 447 596 q 455 553 453 568 q 472 521 458 535 q 508 498 487 507 q 555 484 530 488 q 608 479 581 479 q 629 479 618 479 q 650 481 640 480 q 688 495 670 485 q 719 521 705 506 q 740 553 732 536 q 749 586 747 570 q 738 720 755 660 q 681 823 720 780 q 591 884 644 863 q 473 905 538 905 q 340 884 408 905 q 256 843 296 871 q 180 774 215 815 q 116 681 145 733 q 68 566 87 628 q 46 467 53 522 q 41 356 39 413 q 54 242 43 298 q 86 137 64 186 q 139 49 107 87 q 216 -11 172 10 q 281 -24 247 -24 q 348 -13 315 -24 q 407 14 381 -2 q 450 47 433 30 q 469 77 467 65 q 471 87 469 81 q 480 93 473 93 q 489 88 486 93 q 497 71 492 83 q 525 22 508 45 q 563 -19 541 -2 q 610 -44 584 -36 q 669 -46 637 -52 m 492 479 q 496 422 496 439 q 496 408 496 415 q 496 393 496 401 q 527 420 511 409 q 557 438 543 431 q 492 479 513 452 z "},"H":{"ha":894,"x_min":24,"x_max":915,"o":"m 911 436 q 914 317 915 377 q 906 202 913 258 q 886 98 899 146 q 855 11 873 49 q 811 -51 836 -26 q 755 -82 787 -75 q 696 -89 726 -89 q 606 -71 645 -89 q 543 -20 566 -53 q 491 45 507 6 q 480 85 484 62 q 474 135 476 109 q 470 191 471 162 q 469 224 469 208 q 468 183 469 205 q 465 117 467 150 q 459 56 463 85 q 447 7 454 27 q 409 -46 434 -25 q 352 -78 384 -67 q 286 -89 321 -88 q 220 -82 252 -90 q 144 -28 178 -73 q 100 19 119 -12 q 66 88 80 49 q 42 173 52 127 q 29 270 33 220 q 24 372 24 320 q 27 474 24 424 q 38 575 31 524 q 59 675 46 627 q 90 767 72 724 q 130 843 107 810 q 182 896 153 876 q 245 918 211 916 q 289 916 271 919 q 323 905 308 912 q 349 886 338 897 q 371 860 361 875 q 402 831 389 848 q 426 793 416 814 q 444 751 436 773 q 458 708 452 729 q 462 688 460 699 q 465 663 464 677 q 472 710 469 689 q 480 746 476 732 q 502 810 490 779 q 534 867 515 842 q 582 905 553 891 q 654 918 611 920 q 762 854 714 913 q 822 781 796 827 q 867 677 848 734 q 896 558 885 621 q 911 436 907 495 m 714 -28 q 765 2 743 -22 q 805 63 788 26 q 834 147 822 100 q 852 248 846 195 q 859 359 858 302 q 857 473 861 416 q 844 576 852 525 q 824 674 836 627 q 794 762 811 721 q 756 833 777 802 q 709 881 734 863 q 653 901 683 899 q 591 892 616 905 q 548 858 566 880 q 518 805 530 836 q 496 741 506 774 q 487 695 491 724 q 479 635 482 667 q 474 571 476 604 q 472 514 472 539 q 519 498 505 511 q 522 493 522 496 q 519 487 522 490 q 514 484 517 485 q 509 486 511 484 q 484 496 501 492 q 444 500 466 500 q 370 485 400 500 q 364 485 367 484 q 360 489 361 486 q 359 495 358 492 q 363 500 359 498 q 387 509 374 505 q 415 514 400 513 l 415 581 q 414 645 415 614 q 411 700 413 675 q 404 741 408 725 q 383 802 394 773 q 356 853 372 831 q 316 889 340 876 q 259 902 293 902 q 198 885 226 902 q 148 838 170 868 q 107 767 125 808 q 77 679 90 726 q 56 579 64 631 q 43 473 47 526 q 40 359 39 416 q 48 248 41 302 q 66 147 54 195 q 95 63 77 100 q 135 2 112 26 q 186 -28 157 -22 q 244 -34 212 -35 q 304 -25 275 -34 q 357 2 334 -17 q 393 51 381 20 q 405 102 401 71 q 412 167 410 132 q 414 236 414 201 q 414 301 414 271 l 414 330 q 415 353 414 343 q 363 368 384 357 q 359 373 359 370 q 360 378 359 376 q 364 383 361 381 q 370 382 367 385 q 444 368 399 368 q 484 372 466 368 q 509 382 501 376 q 514 382 511 383 q 519 379 517 381 q 522 374 522 377 q 519 369 522 372 q 485 355 509 359 l 485 300 q 486 236 485 271 q 488 166 486 201 q 494 102 490 132 q 507 51 498 71 q 563 -12 522 11 q 659 -35 604 -35 q 714 -28 686 -35 z "},"I":{"ha":449,"x_min":24,"x_max":477,"o":"m 397 837 q 460 686 443 787 q 467 424 477 585 q 457 337 464 379 q 442 253 451 294 q 423 169 433 211 q 401 84 412 127 q 384 31 394 60 q 358 -23 374 1 q 319 -65 342 -48 q 263 -81 296 -81 q 205 -66 231 -81 q 157 -24 179 -52 q 114 21 132 -7 q 84 80 96 48 q 63 143 71 111 q 50 200 55 175 q 35 288 40 241 q 26 382 29 335 q 24 472 24 429 q 28 552 25 516 q 94 832 42 741 q 236 924 145 924 q 359 874 313 924 q 372 858 367 866 q 397 837 387 848 m 412 463 q 407 719 422 621 q 347 863 391 817 q 236 907 305 907 q 105 819 153 907 q 44 551 58 730 q 41 472 41 515 q 42 382 40 429 q 50 290 45 336 q 65 203 56 244 q 76 159 70 184 q 91 109 82 134 q 112 58 100 83 q 140 15 123 34 q 177 -16 156 -5 q 225 -28 198 -28 q 274 -12 254 -28 q 308 26 294 3 q 331 76 322 50 q 347 126 340 103 q 390 290 373 206 q 412 463 407 373 m 163 990 q 119 1038 133 1008 q 102 1114 100 1080 q 118 1175 104 1148 q 149 1221 131 1202 q 181 1251 168 1240 q 229 1276 203 1267 q 283 1285 256 1285 q 308 1283 294 1285 q 337 1275 322 1281 q 368 1260 353 1270 q 398 1234 383 1250 q 404 1227 401 1230 q 409 1220 406 1223 q 436 1196 423 1211 q 463 1139 459 1171 q 458 1075 467 1107 q 432 1015 449 1043 q 397 971 414 987 q 347 942 377 952 q 283 931 317 931 q 212 946 243 931 q 163 990 180 962 m 191 1238 q 159 1208 176 1226 q 131 1165 142 1190 q 119 1111 120 1141 q 134 1045 117 1081 q 177 1001 147 1017 q 245 985 206 985 q 303 994 276 985 q 347 1021 330 1004 q 379 1061 363 1036 q 404 1114 395 1086 q 409 1171 412 1143 q 386 1222 406 1200 q 359 1245 372 1236 q 332 1260 345 1255 q 306 1267 318 1265 q 283 1269 293 1269 q 235 1261 258 1269 q 191 1238 211 1253 z "},"J":{"ha":996,"x_min":21,"x_max":1017,"o":"m 1012 721 q 1016 692 1015 710 q 1014 652 1017 674 q 1001 605 1010 629 q 974 555 992 580 q 949 528 964 543 q 912 500 934 513 q 862 474 890 486 q 795 456 833 463 q 813 392 807 429 q 818 310 819 354 q 808 219 817 267 q 780 127 799 172 q 755 77 770 103 q 719 27 740 52 q 670 -19 698 2 q 605 -53 642 -40 q 521 -74 567 -66 q 427 -81 475 -81 q 326 -73 374 -81 q 238 -51 278 -65 q 165 -15 197 -36 q 113 33 134 7 q 78 66 93 49 q 54 103 64 83 q 28 178 36 140 q 24 252 21 216 q 40 320 27 288 q 77 380 54 353 q 151 438 108 418 q 243 458 195 458 q 322 444 285 458 q 385 393 359 429 l 399 383 q 399 417 399 403 l 399 445 q 185 534 243 454 q 143 576 159 553 q 120 630 125 602 q 116 684 115 658 q 125 733 118 711 q 140 772 132 756 q 286 890 180 851 q 566 929 391 929 l 612 929 q 708 924 661 928 q 800 910 756 920 q 879 880 843 899 q 941 827 916 860 q 1012 721 993 788 m 922 603 q 946 646 938 624 q 959 688 955 667 q 962 725 962 708 q 958 754 961 743 q 909 837 943 806 q 827 884 874 868 q 725 906 781 901 q 612 912 669 911 q 587 913 599 913 l 565 913 q 294 876 396 913 q 155 764 193 839 q 141 729 147 750 q 133 684 135 709 q 137 634 132 660 q 157 585 142 608 q 248 519 186 541 q 404 498 310 498 q 447 498 429 498 q 481 500 465 499 q 491 493 490 500 q 483 484 491 486 q 453 482 468 483 q 420 481 437 481 q 415 442 416 469 q 416 385 415 415 q 416 338 416 363 q 415 291 416 314 q 413 258 415 276 q 404 224 410 241 q 388 194 398 208 q 360 173 377 180 q 350 178 352 173 q 355 189 347 186 l 358 191 q 368 198 362 193 q 379 212 373 203 q 390 235 385 221 q 395 259 393 246 q 398 290 397 273 q 387 353 398 325 q 356 400 376 380 q 308 431 336 420 q 244 442 279 442 q 158 424 199 442 q 89 370 118 405 q 55 314 67 345 q 40 250 43 283 q 45 181 38 216 q 69 111 52 146 q 123 46 87 73 q 203 4 159 20 q 297 -19 248 -12 q 391 -26 347 -26 q 482 -20 438 -26 q 561 0 526 -13 q 622 32 595 12 q 669 76 648 52 q 703 124 689 99 q 727 171 718 149 q 752 248 742 208 q 764 330 762 288 q 761 412 766 372 q 741 491 755 453 q 670 485 706 486 q 664 487 667 485 q 662 493 662 490 q 664 499 662 496 q 670 501 666 501 q 823 529 759 503 q 922 603 886 555 z "},"K":{"ha":951,"x_min":24,"x_max":980,"o":"m 921 286 q 968 170 957 229 q 966 58 980 111 q 934 -10 956 20 q 880 -58 911 -40 q 783 -83 833 -83 q 680 -57 732 -83 q 587 18 628 -30 q 548 57 566 35 q 497 128 518 92 q 460 205 476 164 q 417 77 445 136 q 355 -20 389 18 q 254 -73 306 -73 q 156 -33 196 -73 q 148 -24 152 -28 q 139 -12 144 -19 q 118 5 127 -5 q 47 161 71 53 q 25 443 24 269 q 31 547 25 492 q 48 655 37 602 q 78 756 60 708 q 120 841 96 804 q 175 899 144 878 q 243 921 205 921 q 313 903 279 921 q 372 852 346 886 q 423 796 401 831 q 457 715 444 761 q 509 790 478 752 q 576 859 539 828 q 657 908 614 889 q 746 928 700 928 q 859 868 812 928 l 860 868 q 918 791 901 840 q 919 685 936 739 q 852 585 902 631 q 777 531 819 554 q 686 494 734 507 q 765 449 726 476 q 841 381 805 421 q 921 286 889 338 m 912 100 q 914 205 925 150 q 869 315 903 260 q 796 403 837 367 q 712 462 755 439 q 630 497 669 485 q 561 515 590 510 q 554 524 554 517 q 562 532 554 532 q 610 539 581 533 q 672 556 639 545 q 739 587 705 568 q 803 634 773 606 q 864 727 848 677 q 864 823 880 776 q 820 886 850 861 q 746 911 789 911 q 671 897 707 911 q 602 858 635 882 q 541 803 569 834 q 492 740 513 772 q 456 677 470 708 q 437 621 442 646 q 429 614 436 614 q 421 621 421 614 q 406 738 419 686 q 369 827 393 790 q 314 884 346 864 q 243 905 282 905 q 185 886 212 905 q 136 834 159 867 q 96 757 114 802 q 66 662 79 713 q 48 554 54 610 q 41 443 41 498 q 63 167 41 273 q 130 17 85 62 q 216 -18 164 -18 q 305 29 261 -18 q 356 105 334 60 q 394 199 379 151 q 416 295 410 248 q 420 378 423 342 q 427 387 418 386 l 428 387 q 436 380 435 387 q 452 294 444 335 q 475 215 461 254 q 509 141 488 177 q 560 68 529 104 q 648 -4 600 22 q 745 -29 697 -29 q 833 -5 791 -29 q 883 37 863 10 q 912 100 903 64 z "},"L":{"ha":782,"x_min":24,"x_max":806,"o":"m 753 311 q 804 184 806 267 q 770 64 804 115 q 682 -19 736 14 q 558 -68 627 -52 q 415 -84 488 -84 q 261 -57 326 -83 q 152 22 196 -31 q 35 259 58 98 q 30 304 33 275 q 26 370 27 332 q 24 451 24 407 q 27 540 24 494 q 37 632 31 586 q 55 721 43 679 q 82 799 66 763 q 121 862 98 836 q 187 911 149 894 q 270 928 226 928 q 355 910 314 928 q 441 843 404 888 q 527 713 500 796 q 541 524 553 631 q 531 463 538 500 q 511 388 524 427 q 539 390 526 389 q 566 391 553 391 q 715 348 664 391 q 741 319 730 335 q 747 315 744 317 q 753 311 750 313 m 377 -30 q 470 -23 424 -30 q 556 -3 515 -17 q 633 31 597 10 q 694 79 668 52 q 734 143 720 107 q 749 222 749 178 q 704 336 751 297 q 566 374 658 374 q 448 361 514 374 q 378 286 416 300 q 372 286 375 284 q 368 290 369 287 q 372 301 366 298 q 415 338 395 309 q 449 406 434 368 q 473 487 464 444 q 487 564 483 529 q 487 677 493 625 q 463 773 481 730 q 416 847 445 816 q 349 895 387 878 q 270 911 309 911 q 194 896 229 911 q 134 851 159 880 q 86 766 104 817 q 58 657 68 715 q 44 537 47 599 q 41 422 41 476 q 45 325 41 368 q 51 261 48 282 q 152 42 72 113 q 377 -30 231 -29 z "},"M":{"ha":1085,"x_min":25,"x_max":1109,"o":"m 985 808 q 1023 747 1005 786 q 1055 658 1040 708 q 1080 549 1069 608 q 1097 430 1090 491 q 1107 309 1104 369 q 1107 195 1109 249 q 1099 97 1105 141 q 1080 23 1092 52 q 1055 -19 1072 1 q 1016 -54 1038 -39 q 969 -78 994 -69 q 919 -87 944 -87 q 882 -83 902 -87 q 841 -71 861 -79 q 801 -48 820 -62 q 767 -14 781 -35 q 742 7 753 -5 q 722 32 730 18 q 654 193 674 109 q 641 176 648 185 q 623 159 633 167 q 602 145 614 151 q 578 140 591 140 q 547 151 563 140 q 517 183 532 162 q 490 206 503 191 q 482 163 487 186 q 468 112 477 139 q 445 55 458 85 q 412 -5 431 26 q 378 -43 398 -28 q 337 -68 359 -59 q 294 -82 316 -78 q 254 -87 272 -87 q 176 -65 213 -87 q 113 -12 139 -44 q 77 22 92 4 q 54 60 62 41 q 35 134 42 90 q 27 232 28 178 q 28 346 25 286 q 37 467 31 406 q 55 587 44 528 q 80 695 65 645 q 112 784 94 745 q 150 846 130 823 q 183 875 163 862 q 226 898 203 888 q 273 913 249 908 q 319 919 297 919 q 415 894 371 919 q 493 831 459 869 q 505 821 500 825 q 515 811 511 816 q 558 753 539 787 q 618 848 578 807 q 693 901 652 882 q 777 919 734 919 q 877 895 830 919 q 958 831 923 870 q 968 824 962 829 q 985 808 975 818 m 1027 66 q 1045 137 1038 94 q 1053 233 1051 180 q 1052 345 1055 286 q 1042 464 1049 404 q 1025 581 1036 524 q 1002 688 1015 639 q 971 775 988 737 q 935 834 954 813 q 903 862 921 849 q 864 884 885 875 q 821 898 843 892 q 777 903 799 903 q 700 886 737 903 q 631 836 662 869 q 578 758 597 802 q 557 669 559 714 q 556 655 557 661 q 547 650 555 650 q 539 659 539 650 q 521 752 541 705 q 466 836 501 800 q 397 886 435 869 q 319 903 359 903 q 277 898 300 903 q 234 884 255 893 q 193 863 212 876 q 162 834 174 850 q 125 775 142 813 q 95 688 109 737 q 71 581 81 639 q 54 464 60 524 q 45 345 47 404 q 44 233 42 286 q 52 137 45 180 q 69 66 58 94 q 92 30 77 47 q 125 -2 106 12 q 166 -24 144 -16 q 210 -33 188 -33 q 298 -13 258 -33 q 360 41 338 6 q 409 139 393 92 q 432 226 426 187 q 439 291 439 264 q 438 326 439 317 q 440 332 437 330 q 445 335 442 334 q 451 334 448 335 q 454 328 454 332 q 469 281 459 305 q 490 238 478 258 q 515 206 502 218 q 540 193 528 193 q 569 204 555 193 q 595 232 583 216 q 617 267 608 248 q 631 301 626 286 q 642 330 637 317 q 650 335 644 335 q 656 332 654 334 q 659 326 659 330 q 657 291 657 317 q 664 226 657 264 q 687 139 671 187 q 736 41 704 92 q 798 -13 758 6 q 886 -33 838 -33 q 928 -25 907 -33 q 969 -3 950 -17 q 1004 28 988 10 q 1027 66 1019 46 z "},"N":{"ha":922,"x_min":28,"x_max":947,"o":"m 946 456 q 943 326 947 390 q 933 206 939 261 q 918 110 926 151 q 901 48 909 68 q 874 2 890 25 q 837 -41 858 -22 q 789 -72 815 -60 q 732 -84 763 -84 q 661 -64 694 -84 q 602 -13 629 -45 q 523 87 558 20 q 516 52 521 68 q 504 20 511 35 q 431 -58 480 -30 q 315 -88 381 -87 q 210 -66 258 -88 q 134 -7 161 -45 q 105 19 117 5 q 84 49 92 33 q 59 120 70 77 q 41 218 48 164 q 31 331 34 271 q 29 453 28 391 q 35 573 30 514 q 50 683 40 632 q 73 775 59 734 q 105 840 87 816 q 173 898 135 878 q 253 918 210 918 q 317 907 286 918 q 378 876 349 896 q 398 859 388 868 q 418 836 408 849 q 456 799 437 822 q 493 743 474 775 q 535 843 506 802 q 606 907 564 885 q 694 929 646 929 q 784 906 742 929 q 808 888 797 899 q 830 863 820 878 q 887 794 865 840 q 922 692 909 749 q 940 574 935 636 q 946 456 945 513 m 847 93 q 864 153 856 113 q 880 248 873 194 q 890 366 886 302 q 892 495 893 430 q 885 624 892 561 q 865 741 879 687 q 829 833 851 794 q 776 891 808 873 q 694 913 739 913 q 614 893 651 913 q 536 814 565 867 q 500 684 507 760 q 534 597 518 642 q 564 513 550 553 q 591 437 578 471 q 614 380 603 403 q 614 372 616 376 q 607 368 612 368 q 600 373 602 368 q 575 431 588 397 q 549 507 563 466 q 518 593 534 548 q 484 680 503 637 q 368 862 426 820 q 313 891 342 882 q 254 901 283 901 q 118 830 174 901 q 87 768 100 807 q 65 678 75 728 q 52 570 56 628 q 46 451 47 511 q 48 332 45 391 q 58 221 51 273 q 75 126 64 168 q 99 57 85 83 q 127 20 109 37 q 169 -9 145 3 q 219 -27 192 -21 q 275 -34 246 -34 q 384 -7 338 -33 q 451 64 429 19 q 463 235 484 134 q 448 280 455 257 q 432 330 440 304 l 410 395 q 388 461 399 429 q 365 523 376 494 q 343 576 354 553 q 343 584 342 580 q 351 588 345 588 q 358 583 356 588 q 380 530 369 559 q 403 467 392 500 q 426 401 414 435 q 448 334 437 367 q 470 265 459 298 q 490 205 481 233 q 519 132 503 173 q 561 55 536 92 q 618 -5 585 19 q 694 -30 650 -30 q 745 -19 721 -30 q 789 10 769 -7 q 823 50 808 28 q 847 93 838 71 z "},"O":{"ha":846,"x_min":24,"x_max":871,"o":"m 722 806 q 794 722 764 771 q 843 614 825 673 q 866 490 861 556 q 862 355 871 424 q 839 260 856 311 q 795 161 823 210 q 732 68 768 113 q 649 -11 695 23 q 548 -65 603 -45 q 429 -85 493 -85 q 288 -59 356 -85 q 169 24 220 -33 q 88 126 119 65 q 41 255 56 186 q 25 395 25 323 q 37 530 24 467 q 89 674 52 604 q 179 800 125 745 q 304 889 233 855 q 458 923 374 923 q 515 919 486 923 q 722 806 640 901 m 807 395 q 812 508 814 451 q 797 620 810 566 q 759 721 783 673 q 700 806 735 768 q 618 869 665 844 q 513 903 571 894 q 458 907 485 907 q 356 892 404 907 q 266 850 308 877 q 190 788 224 824 q 128 709 155 751 q 82 621 101 667 q 54 527 63 574 q 42 427 44 480 q 46 318 39 373 q 70 210 53 263 q 114 113 86 157 q 183 35 142 68 q 277 -14 223 1 q 391 -32 336 -32 q 506 -12 452 -32 q 603 40 559 7 q 682 117 647 73 q 743 208 718 160 q 785 303 769 255 q 807 395 801 351 m 431 509 q 450 503 441 509 q 465 488 458 496 q 475 468 471 479 q 479 449 479 458 q 465 415 479 429 q 431 401 450 401 q 397 415 411 401 q 382 449 382 429 q 386 468 382 458 q 396 488 390 479 q 412 503 403 496 q 431 509 420 509 m 462 453 q 447 440 454 450 q 438 419 440 431 q 455 431 448 422 q 462 453 462 439 z "},"P":{"ha":779,"x_min":24,"x_max":804,"o":"m 741 758 q 789 656 774 712 q 800 542 804 600 q 776 430 797 485 q 717 334 755 376 q 670 293 696 311 q 614 264 644 275 q 554 251 585 254 q 490 254 522 248 q 511 147 509 199 q 496 52 513 96 q 443 -25 479 8 q 349 -77 407 -58 q 266 -90 307 -90 q 224 -86 245 -90 q 182 -75 202 -83 q 144 -53 161 -66 q 115 -21 126 -40 q 103 -14 109 -18 q 94 -6 98 -9 q 61 51 75 11 q 39 146 47 91 q 28 267 31 201 q 26 401 24 332 q 33 538 27 470 q 48 665 39 606 q 70 771 57 724 q 100 844 83 817 q 134 878 111 863 q 187 905 156 893 q 256 923 218 916 q 336 931 294 930 q 433 926 384 931 q 528 907 481 921 q 618 868 575 892 q 696 804 661 843 q 741 758 724 783 m 666 382 q 723 474 703 422 q 746 581 743 526 q 735 689 749 635 q 690 785 722 742 q 625 846 665 821 q 538 886 585 871 q 439 908 491 901 q 336 915 387 915 q 260 907 296 913 q 195 890 224 901 q 145 866 166 880 q 114 835 124 852 q 86 765 98 810 q 64 662 73 720 q 50 538 55 604 q 42 404 44 471 q 43 272 41 336 q 54 154 46 208 q 74 61 61 100 q 104 6 86 22 q 160 -25 128 -14 q 228 -36 191 -36 q 307 -24 267 -36 q 399 30 362 -6 q 448 113 436 66 q 454 150 451 127 q 458 199 458 173 q 452 250 458 224 q 429 295 446 275 q 309 343 370 309 q 306 348 306 345 q 307 354 305 351 q 311 357 308 356 q 318 357 314 359 q 494 304 410 304 q 588 324 545 304 q 666 382 631 344 m 424 638 q 459 628 443 638 q 488 600 476 618 q 490 594 490 597 q 486 589 490 591 q 480 587 484 587 q 475 591 477 587 q 425 621 454 621 q 396 612 410 621 q 373 587 382 603 q 362 585 369 581 q 359 596 355 589 q 388 626 370 615 q 424 638 405 637 z "},"Q":{"ha":873,"x_min":21,"x_max":893,"o":"m 808 1 q 862 -73 852 -31 q 864 -95 864 -83 q 859 -121 864 -107 q 844 -150 854 -135 q 814 -180 833 -165 q 717 -219 765 -219 q 662 -205 687 -219 q 618 -163 636 -191 q 580 -126 596 -149 q 557 -72 564 -102 q 507 -84 532 -80 q 452 -87 481 -87 q 375 -80 414 -87 q 301 -58 337 -73 q 234 -20 266 -43 q 176 33 202 2 q 158 50 167 41 q 142 66 149 58 q 85 149 109 103 q 46 248 60 195 q 26 358 31 300 q 27 475 21 416 q 74 649 37 568 q 169 790 111 730 q 299 885 226 850 q 456 923 373 920 q 600 900 532 926 q 720 821 667 874 l 729 812 q 739 802 734 808 q 749 792 744 797 q 758 783 754 788 q 859 621 824 718 q 893 407 893 524 q 878 278 893 336 q 842 176 863 220 q 796 101 821 132 q 752 50 772 69 q 808 1 788 29 m 766 -130 q 808 -39 819 -87 q 793 -7 804 -22 q 764 22 781 9 q 725 45 747 35 q 679 61 703 56 q 672 67 673 62 q 676 76 671 73 q 688 86 676 77 q 719 116 701 96 q 758 166 736 136 q 797 237 779 197 q 827 330 814 278 q 839 444 839 381 q 806 652 839 558 q 709 810 772 746 q 598 882 661 858 q 456 907 536 907 q 306 870 377 904 q 180 778 235 836 q 88 642 124 720 q 43 474 52 564 q 42 360 37 416 q 61 253 47 304 q 99 157 75 201 q 154 77 122 113 q 269 -5 203 22 q 414 -33 335 -33 q 502 -21 459 -33 q 585 19 545 -9 q 596 18 591 22 q 596 6 602 12 l 567 -24 q 576 -80 568 -54 q 600 -124 585 -106 q 635 -154 614 -143 q 679 -165 655 -165 q 766 -130 721 -165 m 452 507 q 472 501 463 507 q 487 486 481 495 q 497 466 494 477 q 501 446 501 456 q 487 412 501 427 q 452 398 473 398 q 418 412 433 398 q 404 446 404 427 q 408 466 404 456 q 418 486 412 477 q 433 501 425 495 q 452 507 442 507 m 460 415 q 479 429 473 418 q 484 452 486 439 q 468 438 475 448 q 460 415 461 427 z "},"R":{"ha":861,"x_min":24,"x_max":886,"o":"m 879 111 q 873 32 886 68 q 825 -33 859 -5 q 766 -66 800 -54 q 695 -77 732 -77 q 629 -65 659 -77 q 535 5 577 -44 q 458 96 495 37 q 433 -22 464 12 q 401 -47 421 -35 q 357 -66 382 -58 q 304 -79 332 -75 q 248 -84 277 -84 q 168 -71 201 -84 q 121 -29 142 -60 q 54 79 77 -4 q 35 170 42 119 q 26 275 28 220 q 25 388 24 330 q 30 500 26 446 q 40 606 34 555 q 53 696 45 656 q 67 764 60 736 q 82 802 75 792 q 135 853 102 831 q 208 892 167 876 q 296 917 248 909 q 397 926 345 926 q 495 918 448 926 q 585 894 543 909 q 663 853 627 878 q 724 798 698 829 q 802 694 778 753 q 821 599 821 648 q 798 501 820 550 q 778 469 791 486 q 746 436 765 452 q 702 405 727 419 q 648 380 677 391 q 717 340 684 363 q 779 284 750 317 q 879 111 861 214 m 777 18 q 819 75 807 42 q 825 146 831 108 q 782 252 814 208 q 708 325 749 296 q 624 373 667 355 q 547 404 581 391 q 533 402 540 403 q 518 402 526 402 q 409 425 461 402 q 404 430 406 427 q 404 436 403 433 q 409 440 406 438 q 415 440 412 443 q 519 418 466 418 q 597 431 560 418 q 665 462 635 443 q 715 503 694 481 q 745 545 736 526 q 765 636 764 591 q 749 726 766 682 q 683 816 727 776 q 578 878 639 856 q 494 901 540 893 q 399 909 448 909 q 302 901 349 909 q 216 877 255 892 q 145 841 176 862 q 96 792 115 819 q 78 739 87 781 q 61 636 69 697 q 47 502 53 576 q 41 353 41 429 q 47 208 41 278 q 69 83 54 138 q 136 -18 94 -1 q 169 -27 151 -24 q 210 -30 188 -30 q 262 -26 236 -30 q 312 -14 289 -22 q 354 4 335 -6 q 383 27 372 15 q 400 65 396 41 q 405 114 405 88 q 401 163 405 139 q 396 201 398 186 q 394 217 395 213 q 394 223 393 221 q 401 230 395 229 q 409 225 406 230 q 415 214 412 220 q 422 201 418 208 q 454 139 437 171 q 492 77 471 106 q 538 24 513 47 q 597 -12 564 1 q 626 -20 610 -18 q 658 -23 642 -23 q 722 -12 690 -23 q 777 18 753 -1 m 420 650 q 388 641 404 650 q 363 616 373 631 q 351 613 359 610 q 348 618 349 614 q 349 625 347 621 q 380 655 361 644 q 420 667 399 666 q 491 629 464 667 q 490 617 495 623 q 484 616 488 615 q 478 619 480 616 q 452 642 467 634 q 420 650 438 650 z "},"S":{"ha":785,"x_min":24,"x_max":813,"o":"m 804 271 q 801 180 813 227 q 756 89 789 134 q 694 22 728 52 q 620 -30 660 -7 q 537 -66 581 -52 q 450 -85 494 -81 q 361 -85 406 -90 q 272 -65 315 -80 q 189 -24 229 -50 q 118 36 149 1 q 76 78 94 56 q 47 125 58 100 q 25 219 26 172 q 41 311 24 267 q 85 381 57 349 q 149 434 113 412 q 108 491 128 454 q 83 576 88 528 q 83 622 81 597 q 95 675 85 646 q 123 734 104 703 q 172 797 141 765 q 233 848 199 825 q 303 887 267 871 q 379 911 340 903 q 456 920 418 920 q 526 913 490 920 q 596 894 562 907 q 662 860 631 881 q 715 811 692 840 q 786 714 766 772 q 799 647 798 681 q 793 582 800 612 q 776 526 787 551 q 752 488 765 502 q 657 452 718 452 q 724 393 696 426 q 804 271 788 340 m 705 136 q 747 221 736 178 q 749 304 759 264 q 706 387 739 349 q 621 454 673 425 q 577 472 605 463 q 520 490 550 481 q 482 502 500 496 q 447 514 463 508 q 419 527 431 520 q 400 540 407 533 q 384 561 389 551 q 376 579 378 570 q 375 595 374 588 q 376 607 375 602 q 392 632 380 621 q 420 644 404 644 q 454 629 437 644 q 471 598 467 616 q 472 562 476 581 q 479 553 472 561 q 507 534 486 545 q 562 513 532 521 q 618 506 591 506 q 702 537 673 506 q 722 569 711 547 q 739 618 732 590 q 745 680 745 647 q 732 747 745 713 q 689 815 718 786 q 622 864 659 845 q 541 893 584 884 q 456 903 498 903 q 382 895 420 903 q 310 871 345 886 q 242 834 275 856 q 184 785 210 812 q 137 726 155 755 q 111 670 119 697 q 100 620 102 644 q 100 578 98 597 q 110 530 102 553 q 127 490 117 508 q 150 457 138 471 q 174 435 162 444 q 210 413 191 423 q 249 394 229 404 q 296 370 273 382 q 340 338 320 357 q 357 314 353 326 q 361 294 361 303 q 357 278 360 285 q 351 269 353 272 q 339 258 347 263 q 323 251 332 253 q 306 249 315 248 q 290 255 297 250 q 280 264 286 258 q 271 282 274 270 q 270 312 269 294 q 283 359 272 331 q 263 369 273 364 q 241 379 253 374 q 201 399 222 389 q 163 423 181 410 q 100 374 128 404 q 57 307 73 345 q 41 225 41 269 q 62 132 41 180 q 121 54 82 87 q 209 0 161 20 q 310 -29 258 -21 q 410 -31 363 -37 q 494 -14 452 -27 q 574 22 536 0 q 645 72 612 43 q 705 136 678 101 m 456 589 q 433 571 440 581 q 433 538 425 562 q 462 527 446 532 q 496 515 478 521 q 494 523 495 517 q 480 531 488 526 q 467 542 473 536 q 458 554 461 547 q 456 566 454 560 q 456 589 458 576 m 338 279 q 341 309 349 292 l 335 313 q 328 289 330 300 q 324 269 325 278 q 338 279 332 271 z "},"T":{"ha":876,"x_min":24,"x_max":907,"o":"m 905 633 q 906 588 907 612 q 898 539 905 564 q 878 491 891 515 q 844 448 865 467 q 696 393 789 396 q 728 303 718 358 q 733 177 738 248 q 714 82 730 129 q 671 -3 699 35 q 608 -63 644 -40 q 526 -85 571 -85 l 444 -85 q 363 -67 399 -85 q 298 -14 326 -50 q 229 76 254 18 q 199 214 204 134 q 220 399 191 329 q 125 448 163 412 q 116 458 120 452 q 106 469 111 463 q 96 477 101 473 q 87 485 92 481 q 54 528 66 505 q 34 577 41 552 q 26 626 27 602 q 27 670 24 650 q 40 732 31 701 q 66 792 49 764 q 113 844 84 820 q 184 886 141 868 q 289 913 228 903 q 431 924 349 924 l 463 924 q 594 915 537 924 q 694 892 651 907 q 766 856 736 877 q 815 810 795 836 q 856 769 840 791 q 882 723 872 747 q 897 677 892 700 q 905 633 902 654 m 679 216 q 672 344 684 288 q 637 430 661 399 q 604 432 621 430 q 569 437 587 433 q 562 446 562 439 q 572 453 562 453 q 611 448 592 450 q 648 446 630 446 q 795 497 741 446 q 826 537 814 515 q 844 583 838 559 q 851 628 850 606 q 850 668 852 650 q 839 727 847 698 q 813 783 830 756 q 769 832 796 810 q 700 872 741 855 q 600 898 658 888 q 463 907 541 907 l 431 907 q 294 898 353 907 q 194 872 236 888 q 125 832 153 855 q 81 783 98 810 q 55 727 64 756 q 43 668 47 698 q 42 628 41 650 q 50 583 43 606 q 68 537 56 559 q 99 497 80 515 q 246 446 153 446 q 283 448 264 446 q 322 453 302 450 q 331 446 330 453 q 325 437 333 439 q 290 432 307 433 q 256 429 273 430 q 221 344 233 399 q 215 216 210 288 q 220 172 216 197 q 231 118 223 146 q 253 64 239 91 q 287 16 267 37 q 337 -19 308 -5 q 406 -32 366 -32 l 488 -32 q 563 -10 529 -32 q 622 46 597 12 q 661 126 646 81 q 679 216 676 170 z "},"U":{"ha":857,"x_min":22,"x_max":878,"o":"m 779 846 q 827 775 806 818 q 859 679 847 732 q 874 564 871 626 q 870 435 878 502 q 844 300 863 369 q 795 164 826 231 q 733 60 769 106 q 655 -16 698 15 q 564 -64 612 -47 q 463 -80 515 -80 q 193 35 292 -80 q 111 134 145 76 q 62 245 82 183 q 32 376 42 308 q 23 516 22 445 q 36 652 24 587 q 73 774 49 718 q 136 872 98 831 q 188 912 159 899 q 247 926 216 926 q 307 911 279 926 q 356 866 334 895 q 433 742 410 828 q 441 697 439 722 q 446 644 444 672 q 459 744 450 694 q 490 833 469 793 q 554 906 515 880 q 635 932 592 932 q 703 914 673 932 q 756 867 732 895 q 779 846 767 859 m 743 209 q 791 342 772 275 q 816 474 809 409 q 820 599 823 538 q 806 711 817 659 q 774 804 794 763 q 729 873 755 846 q 635 916 688 916 q 562 892 597 916 q 505 825 528 868 q 482 767 491 799 q 468 702 473 735 q 461 636 463 669 q 457 574 458 603 q 451 499 454 524 q 431 474 447 474 q 413 485 420 474 q 402 516 406 496 q 396 567 398 537 q 393 633 395 596 q 389 711 391 673 q 380 775 387 749 q 328 874 363 839 q 247 909 293 909 q 195 897 220 909 q 147 861 169 885 q 87 767 111 822 q 51 647 63 711 q 39 514 39 583 q 48 379 38 446 q 77 251 58 312 q 125 142 96 191 q 425 -26 224 -26 q 521 -10 475 -26 q 608 36 567 5 q 683 109 648 66 q 743 209 717 153 z "},"V":{"ha":949,"x_min":20,"x_max":970,"o":"m 928 822 q 964 721 959 780 q 949 599 970 663 q 888 452 926 530 q 803 299 850 375 q 704 154 756 223 q 600 32 651 85 q 501 -53 548 -21 q 417 -84 454 -84 q 328 -24 377 -84 q 268 40 298 -2 q 210 132 238 81 q 155 237 181 182 q 109 339 130 291 q 75 424 89 387 q 56 475 60 460 q 28 586 37 533 q 21 685 20 638 q 35 771 23 731 q 69 841 47 810 q 136 899 97 879 q 220 920 175 920 q 306 899 266 920 q 366 847 340 882 q 469 620 449 787 q 500 709 483 665 q 539 792 517 754 q 588 859 562 830 q 644 900 614 887 q 756 924 703 924 q 799 920 781 924 q 833 906 818 915 q 863 885 849 897 q 892 858 877 873 q 928 822 913 844 m 895 642 q 910 756 915 701 q 878 850 905 811 q 755 907 836 907 q 650 884 705 907 q 595 844 621 872 q 550 778 570 816 q 512 696 529 741 q 483 608 496 652 q 460 522 470 564 q 445 449 451 481 q 436 397 439 416 q 433 376 433 377 q 430 371 433 373 q 424 370 427 370 q 419 371 421 370 q 416 377 416 373 q 418 416 416 390 q 421 487 420 446 q 421 574 423 528 q 414 667 420 620 q 394 757 408 715 q 357 832 380 799 q 298 884 334 866 q 220 903 260 903 q 143 885 179 903 q 83 831 108 866 q 37 683 40 772 q 71 481 35 593 q 91 428 78 460 q 120 355 103 395 q 157 271 137 315 q 200 184 178 227 q 245 103 222 142 q 292 34 269 64 q 337 -13 315 5 q 379 -31 359 -31 q 455 -1 411 -31 q 549 80 499 29 q 650 197 598 130 q 748 339 701 264 q 833 491 795 414 q 895 642 871 569 z "},"W":{"ha":1074,"x_min":21,"x_max":1095,"o":"m 1033 821 q 1057 790 1045 808 q 1078 746 1069 771 q 1091 688 1086 720 q 1092 615 1095 656 q 1085 552 1090 593 q 1073 457 1081 510 q 1052 343 1065 404 q 1021 223 1039 283 q 979 108 1003 163 q 923 11 954 53 q 852 -56 891 -31 q 764 -81 812 -81 q 621 -10 677 -81 q 555 71 583 18 q 529 17 546 44 q 487 -33 511 -11 q 429 -69 462 -55 q 355 -83 396 -83 q 292 -75 325 -83 q 209 -15 246 -62 q 161 36 182 5 q 123 109 140 68 q 94 196 106 149 q 71 294 81 243 q 53 395 61 344 q 38 494 45 446 q 26 586 31 538 q 24 681 21 633 q 43 773 28 728 q 90 856 58 818 q 156 906 119 888 q 235 924 193 924 q 300 912 267 924 q 365 861 337 899 q 453 699 426 819 q 457 705 455 703 q 462 711 459 708 q 518 738 484 738 q 571 713 551 738 q 577 705 574 709 q 583 695 580 701 q 602 684 593 691 q 616 666 610 676 q 632 721 623 693 q 655 776 642 749 q 686 830 668 804 q 727 880 703 856 q 780 913 749 901 q 845 924 810 924 q 927 907 888 924 q 995 859 966 890 l 1007 844 q 1021 833 1015 839 q 1033 821 1027 827 m 1038 654 q 1029 764 1043 715 q 983 848 1015 813 q 921 892 957 877 q 845 908 884 908 q 786 898 813 908 q 739 868 758 887 q 686 799 707 836 q 650 722 665 762 q 626 637 635 681 q 607 546 616 593 q 604 531 606 538 q 601 515 602 523 q 593 509 598 509 q 585 518 583 510 q 589 558 587 534 q 588 610 590 583 q 579 662 586 637 q 559 703 572 686 q 518 722 543 722 q 475 701 492 722 q 454 661 461 685 q 443 612 446 637 q 440 564 440 587 q 444 525 441 540 q 443 519 445 522 q 435 515 440 516 q 427 522 429 515 q 424 546 426 532 q 421 577 422 559 q 415 632 418 602 q 406 696 412 663 q 391 761 400 728 q 369 820 382 793 q 338 867 356 847 q 294 897 319 888 q 235 907 266 907 q 163 891 197 907 q 103 845 129 876 q 58 767 73 810 q 41 679 44 725 q 42 587 37 633 q 54 496 47 540 q 71 390 62 446 q 91 280 79 334 q 118 175 102 225 q 153 83 133 124 q 199 15 173 43 q 258 -21 225 -12 q 317 -29 289 -29 q 401 -9 366 -29 q 459 38 436 10 q 495 97 483 66 q 511 148 508 127 q 514 170 512 162 q 524 178 517 178 q 534 172 531 178 q 542 151 536 166 q 552 119 546 137 q 569 81 559 100 q 592 42 578 61 q 626 7 606 22 q 670 -18 645 -8 q 726 -27 694 -27 q 809 -3 772 -27 q 876 63 846 22 q 928 158 905 104 q 969 271 951 212 q 999 388 987 329 q 1019 499 1011 448 q 1031 592 1027 551 q 1038 654 1036 632 z "},"X":{"ha":920,"x_min":20,"x_max":945,"o":"m 899 861 q 940 768 935 821 q 921 651 945 715 q 842 515 896 587 q 707 366 788 443 q 752 307 728 339 q 798 238 777 274 q 835 165 819 203 q 857 92 851 128 q 857 24 863 56 q 827 -35 850 -9 q 779 -69 807 -57 q 718 -81 750 -81 q 684 -78 703 -81 q 645 -65 665 -75 q 601 -39 624 -56 q 555 5 578 -22 q 512 49 533 24 q 473 105 492 74 q 418 46 452 77 q 342 -11 383 16 q 256 -55 300 -37 q 171 -72 212 -72 q 115 -56 138 -69 q 78 -19 91 -43 q 33 35 45 0 q 30 125 20 74 q 66 231 40 177 q 129 337 92 286 q 209 427 167 389 q 126 527 159 474 q 77 632 94 581 q 58 729 60 683 q 70 809 56 775 q 92 849 78 829 q 125 884 106 869 q 167 910 144 900 q 217 920 191 920 q 249 916 231 920 q 285 902 266 912 q 326 876 304 892 q 370 833 347 859 q 460 722 416 793 q 528 805 490 766 q 609 872 567 844 q 694 917 652 901 q 773 934 736 934 q 861 899 827 934 l 869 889 q 876 880 873 884 q 899 861 890 871 m 777 14 q 804 68 798 37 q 803 132 809 98 q 781 201 796 165 q 744 270 765 236 q 701 336 724 304 q 657 392 677 367 q 638 375 649 385 q 617 358 628 366 q 596 342 606 349 q 579 331 586 335 q 573 330 576 330 q 568 334 570 330 q 570 345 564 340 q 691 445 638 393 q 782 550 744 498 q 843 653 820 603 q 874 748 866 704 q 876 828 883 793 q 848 887 869 864 q 773 918 821 918 q 692 899 736 918 q 605 849 648 881 q 524 777 562 818 q 459 688 486 735 q 452 684 457 684 q 444 688 447 684 q 377 797 410 755 q 316 863 345 839 q 262 895 287 886 q 217 903 237 903 q 173 895 193 903 q 135 871 152 886 q 105 839 118 857 q 85 803 92 821 q 74 727 73 771 q 93 634 76 683 q 142 534 110 585 q 222 437 174 483 q 255 464 237 451 q 285 486 273 477 q 296 483 290 488 q 297 477 298 480 q 294 471 297 473 q 273 457 285 466 q 248 438 260 448 q 225 419 236 429 q 208 404 214 410 q 136 318 170 366 q 78 219 102 269 q 46 122 55 169 q 48 41 37 75 q 85 -4 58 10 q 143 -18 112 -18 q 202 -7 171 -18 q 263 21 233 3 q 323 60 294 38 q 375 103 352 81 q 415 145 399 125 q 437 179 431 165 q 445 184 439 183 q 452 179 450 184 q 515 71 483 112 q 578 8 547 30 q 635 -21 608 -14 q 680 -28 661 -28 q 733 -17 708 -28 q 777 14 759 -6 z "},"Y":{"ha":871,"x_min":20,"x_max":893,"o":"m 805 858 q 836 829 820 846 q 864 784 851 811 q 885 721 877 758 q 893 635 893 684 q 887 530 893 585 q 861 424 881 475 q 803 328 841 372 q 701 253 765 283 q 681 235 688 247 q 671 206 673 222 q 668 170 668 190 q 669 129 668 151 q 669 83 669 106 q 665 37 669 60 q 653 -6 662 15 q 629 -43 645 -26 q 477 -90 583 -90 q 322 -26 363 -90 q 287 7 300 -12 q 267 49 274 26 q 258 95 260 71 q 254 142 256 119 q 250 197 253 171 q 237 243 247 222 q 186 279 209 260 q 144 320 163 298 q 50 445 80 374 q 26 600 20 516 q 34 701 29 652 q 53 792 39 750 q 93 865 66 833 q 165 916 119 897 q 232 927 194 927 q 278 923 254 927 q 326 910 302 919 q 370 886 349 901 q 406 849 391 871 q 450 801 433 829 q 469 736 467 772 q 488 833 478 795 q 510 872 494 854 q 548 903 526 890 q 598 924 571 916 q 656 932 626 932 q 739 913 701 932 q 805 858 777 895 m 656 305 q 753 377 717 334 q 808 469 789 420 q 833 571 827 518 q 839 673 839 624 q 828 769 839 729 q 801 836 818 809 q 763 879 784 863 q 722 903 743 895 q 684 913 702 911 q 656 916 667 916 q 604 909 629 916 q 558 890 579 902 q 524 863 538 878 q 505 829 509 847 q 485 730 492 783 q 473 626 478 677 q 465 560 469 587 q 458 515 462 532 q 448 489 454 497 q 434 481 442 481 q 420 487 426 481 q 406 553 406 503 q 411 678 406 604 q 414 737 413 710 q 414 779 416 764 q 394 838 411 813 q 351 879 376 863 q 294 903 325 895 q 232 911 262 911 q 170 901 197 911 q 104 854 128 884 q 67 785 80 825 q 50 699 55 746 q 42 599 45 651 q 80 421 36 500 q 216 290 123 343 q 244 263 234 279 q 260 229 254 248 q 268 188 266 210 q 271 144 270 166 q 278 78 273 111 q 298 21 282 46 q 348 -20 315 -5 q 439 -36 380 -36 q 579 6 538 -36 q 601 39 593 21 q 611 79 608 58 q 614 122 614 100 q 614 166 614 144 q 613 210 613 189 q 617 250 614 232 q 630 283 621 269 q 656 305 639 297 z "},"Z":{"ha":886,"x_min":0,"x_max":906,"o":"m 882 260 q 901 205 895 234 q 905 146 906 176 q 895 89 903 117 q 871 37 886 61 q 821 -12 854 8 q 748 -45 788 -32 q 664 -67 708 -59 q 578 -79 619 -75 q 503 -84 537 -83 q 449 -85 469 -85 q 365 -83 406 -85 q 289 -75 324 -80 q 228 -64 254 -71 q 186 -50 201 -58 q 105 16 136 -23 q 34 234 0 99 q 58 285 41 261 q 100 329 76 309 q 152 365 123 349 q 209 396 180 382 q 178 399 191 397 q 161 405 165 401 q 134 425 146 413 q 111 450 122 436 q 48 530 70 479 q 24 646 26 581 q 30 716 24 682 q 48 778 36 749 q 77 829 60 807 q 115 865 94 852 q 171 891 138 880 q 245 911 204 903 q 332 924 286 920 q 429 928 379 928 q 525 924 475 928 q 622 909 575 919 q 708 882 669 899 q 774 842 748 866 q 798 817 785 831 q 812 804 806 810 q 864 732 847 771 q 882 653 880 693 q 874 574 884 612 q 844 503 863 535 q 734 400 812 450 q 822 334 789 377 q 882 260 861 304 m 819 83 q 841 131 833 105 q 850 185 849 157 q 847 239 852 212 q 829 291 842 267 q 756 370 804 342 q 645 406 709 399 q 565 366 606 385 q 485 330 524 347 q 423 302 451 315 q 375 277 395 289 q 369 276 372 275 q 363 280 365 277 q 363 286 362 281 q 366 291 363 290 q 416 316 387 303 q 479 345 444 330 q 569 386 522 364 q 659 433 616 408 q 736 487 701 458 q 791 549 772 515 q 820 615 810 579 q 828 689 830 651 q 810 763 826 726 q 762 830 795 800 q 709 864 743 849 q 633 889 676 879 q 537 905 589 900 q 429 911 486 911 q 334 907 380 911 q 249 895 289 903 q 177 876 210 887 q 123 852 145 865 q 89 819 104 840 q 62 771 73 798 q 46 712 52 744 q 41 646 40 680 q 66 531 42 581 q 131 456 90 481 q 160 450 136 453 q 221 448 184 448 q 253 448 234 448 q 293 451 271 449 q 339 457 315 453 q 387 467 363 461 q 484 526 463 488 q 489 530 486 529 q 495 530 492 531 q 498 518 500 526 q 391 452 474 474 q 354 439 372 448 q 317 424 336 431 q 241 392 283 410 q 159 351 198 374 q 90 297 120 327 q 50 230 60 267 q 44 148 38 184 q 67 83 50 111 q 108 36 83 56 q 157 2 132 16 q 197 -12 171 -5 q 257 -23 223 -18 q 332 -30 292 -28 q 415 -33 372 -33 q 467 -32 434 -33 q 539 -26 500 -31 q 621 -15 578 -22 q 702 5 663 -7 q 771 37 740 18 q 819 83 802 56 z "}," ":{"ha":340,"x_min":0,"x_max":0,"o":""},".":{"ha":391,"x_min":35,"x_max":401,"o":"m 372 178 q 398 120 395 153 q 393 57 401 88 q 367 -3 385 25 q 332 -47 350 -31 q 282 -77 312 -66 q 219 -87 252 -87 q 146 -72 178 -87 q 98 -27 115 -56 q 54 20 68 -9 q 38 96 35 62 q 53 157 40 130 q 85 203 66 184 q 117 233 103 222 q 165 258 138 249 q 218 267 191 267 q 244 265 230 267 q 273 257 258 263 q 303 242 288 252 q 334 216 319 232 q 345 201 339 210 q 372 178 359 191 m 283 3 q 315 43 299 18 q 339 96 331 68 q 345 153 347 125 q 321 204 342 182 q 294 228 308 218 q 267 242 281 237 q 241 249 254 247 q 218 251 229 251 q 170 243 194 251 q 127 220 146 235 q 94 190 111 208 q 66 148 77 172 q 54 93 55 123 q 69 27 53 63 q 112 -17 83 -1 q 181 -33 141 -33 q 238 -24 212 -33 q 283 3 265 -14 z "},",":{"ha":327,"x_min":-11,"x_max":369,"o":"m 312 81 q 342 54 331 72 q 360 16 354 37 q 368 -25 366 -5 q 368 -62 369 -46 q 347 -129 366 -91 q 298 -206 328 -166 q 233 -284 269 -245 q 164 -352 198 -322 q 100 -400 130 -382 q 55 -418 71 -418 q 43 -415 47 -418 q 35 -405 38 -411 q 31 -392 32 -399 q 29 -378 29 -385 q 18 -380 25 -379 q 8 -378 12 -382 q -8 -351 -5 -371 q -6 -302 -11 -330 q 9 -241 -1 -274 q 32 -174 19 -208 q 58 -108 44 -140 q 83 -51 71 -76 q 101 -11 94 -26 q 109 5 109 4 q 134 44 120 23 q 164 84 147 66 q 200 114 180 102 q 241 126 219 126 q 282 114 264 126 q 312 81 300 102 m 314 -22 q 313 17 315 -6 q 303 60 311 39 q 280 95 295 81 q 241 110 265 110 q 205 99 222 110 q 174 71 189 87 q 146 34 159 54 q 123 -3 134 14 q 96 -60 111 -26 q 65 -132 80 -94 q 37 -209 50 -170 q 16 -279 24 -247 q 6 -335 7 -312 q 15 -363 5 -357 q 45 -353 26 -363 q 86 -326 64 -343 q 135 -284 109 -308 q 185 -234 160 -261 q 232 -179 210 -208 q 273 -122 255 -150 q 301 -68 290 -94 q 314 -22 313 -43 z "},"+":{"ha":707,"x_min":-5,"x_max":751,"o":"m 747 300 q 726 224 751 253 q 694 201 713 210 q 653 187 675 192 q 610 181 632 182 q 570 180 589 180 q 543 180 557 180 q 500 181 529 180 q 496 120 498 155 q 486 54 493 86 q 464 -5 478 21 q 427 -42 450 -32 q 387 -51 407 -51 q 321 -18 350 -51 l 316 -11 q 311 -3 313 -7 q 284 20 296 6 q 264 50 273 33 q 250 84 256 66 q 240 120 244 102 q 235 155 237 138 q 223 155 229 155 l 212 155 q 183 156 203 155 q 141 162 164 157 q 96 178 119 168 q 58 207 74 189 q 48 222 52 214 q 20 245 33 231 q 1 319 -5 276 q 15 361 5 345 q 39 388 25 378 q 68 402 52 397 q 100 412 83 408 q 138 421 119 417 q 175 429 157 426 q 206 435 192 433 q 227 439 220 437 q 223 488 222 461 q 229 543 224 515 q 244 596 235 570 q 267 643 254 623 q 328 693 293 686 q 366 692 346 696 q 401 672 386 688 q 416 650 410 663 q 439 634 429 646 q 461 597 454 619 q 472 550 469 575 q 476 498 476 524 q 476 449 477 472 q 493 450 485 450 q 509 450 501 450 q 563 446 535 450 q 616 433 591 442 q 663 410 642 425 q 696 376 684 396 q 747 300 741 347 m 676 273 q 692 336 697 296 q 671 381 689 363 q 628 412 654 400 q 570 429 602 424 q 509 434 539 434 q 430 425 465 434 q 423 425 427 422 q 419 432 419 429 q 419 444 419 437 q 420 459 420 450 q 422 509 421 480 q 421 566 423 537 q 411 620 418 594 q 389 661 404 646 q 362 676 378 673 q 331 677 347 679 q 281 634 304 671 q 259 588 268 614 q 245 534 250 562 q 240 481 240 507 q 245 435 240 455 q 239 424 248 427 q 207 420 224 424 q 172 413 190 417 q 137 404 155 408 q 104 396 119 399 q 74 387 88 392 q 49 374 60 382 q 29 353 37 366 q 18 317 21 339 q 33 256 12 281 q 61 234 44 243 q 96 219 77 225 q 136 211 115 214 q 174 209 156 209 q 212 211 194 209 q 241 218 229 214 q 249 217 245 218 q 252 209 253 215 q 250 169 249 193 q 257 121 252 146 q 272 72 262 96 q 296 31 282 47 q 349 3 320 3 q 382 11 363 3 q 414 45 402 20 q 433 101 426 70 q 441 163 439 132 q 445 217 444 195 l 446 228 q 457 236 446 234 q 481 237 468 238 q 509 235 495 237 q 532 234 524 234 q 676 273 642 234 z "},"-":{"ha":707,"x_min":7,"x_max":745,"o":"m 730 294 q 736 246 745 271 q 691 207 728 226 q 598 173 654 188 q 475 149 543 158 q 338 140 407 140 q 247 144 291 140 q 163 157 203 149 q 133 166 149 160 q 102 180 117 172 q 75 198 87 188 q 56 222 63 209 q 10 282 16 248 q 24 323 7 303 q 72 359 39 342 q 151 391 104 377 q 255 414 197 406 q 378 423 313 423 q 424 420 397 423 q 483 413 452 418 q 547 401 514 408 q 608 383 579 393 q 659 360 636 373 q 692 332 681 347 q 697 322 695 327 q 730 294 720 309 m 682 290 q 678 322 689 306 q 647 348 668 336 q 598 370 626 360 q 539 386 571 379 q 478 397 508 393 q 422 404 448 401 q 378 406 396 406 q 259 398 315 406 q 158 377 203 390 q 82 347 114 363 q 37 313 51 330 q 26 285 24 298 q 41 256 29 269 q 67 234 52 243 q 99 219 83 225 q 130 211 116 214 q 211 199 168 203 q 300 195 254 195 q 436 204 370 195 q 555 227 503 213 q 642 257 608 240 q 682 290 676 274 z "},"!":{"ha":330,"x_min":28,"x_max":363,"o":"m 359 783 q 360 694 363 738 q 352 607 357 650 q 347 551 349 578 q 343 494 345 524 q 337 409 341 454 q 320 324 334 363 q 279 256 307 285 q 205 220 252 227 q 154 223 180 216 q 111 250 128 230 q 97 269 104 256 q 73 288 84 275 q 41 349 51 311 q 30 430 32 387 q 32 514 28 472 q 38 591 35 557 q 43 657 41 623 q 49 726 45 691 q 60 794 53 760 q 79 859 66 828 q 125 910 93 891 q 197 929 157 929 q 261 914 233 929 q 306 871 290 899 q 323 859 314 866 q 339 841 332 851 q 352 815 347 830 q 359 783 357 801 m 298 647 q 306 733 302 690 q 305 819 309 777 q 293 861 303 844 q 268 890 283 878 q 234 907 252 901 q 197 912 216 912 q 134 896 162 912 q 95 852 106 880 q 76 790 82 822 q 66 724 69 758 q 60 657 62 691 q 54 589 58 623 q 50 542 52 568 q 46 489 47 516 q 46 433 45 461 q 52 380 47 406 q 63 334 56 355 q 85 298 71 313 q 121 277 100 281 q 165 275 142 273 q 213 293 193 279 q 247 327 233 307 q 268 372 260 347 q 280 425 275 397 q 286 479 284 452 q 289 533 288 507 q 292 589 290 562 q 298 647 294 617 m 272 140 q 286 130 279 135 q 298 118 292 125 q 319 74 316 98 q 315 24 321 49 q 295 -23 308 -1 q 268 -58 281 -45 q 229 -80 252 -72 q 180 -89 205 -89 q 120 -75 146 -89 q 82 -37 94 -61 q 43 4 54 -21 q 30 63 28 36 q 41 111 31 90 q 66 146 52 132 q 91 170 81 161 q 129 190 108 182 q 170 197 149 197 q 213 189 189 197 q 260 156 237 181 q 272 140 267 149 m 219 -7 q 243 23 231 4 q 261 64 255 42 q 266 107 268 85 q 248 145 264 128 q 207 173 228 167 q 170 180 186 180 q 134 174 152 180 q 101 156 116 168 q 77 134 90 147 q 55 102 64 120 q 46 61 47 83 q 58 11 45 38 q 89 -22 67 -10 q 142 -34 111 -34 q 185 -27 165 -34 q 219 -7 205 -20 z "},"?":{"ha":663,"x_min":26,"x_max":648,"o":"m 623 772 q 646 689 644 729 q 634 611 648 649 q 594 539 620 574 q 535 473 568 505 q 465 411 502 441 q 392 354 427 381 q 343 316 366 334 q 301 280 320 298 q 268 247 282 263 q 246 216 254 231 q 226 190 237 199 q 291 153 263 182 q 302 136 298 144 q 329 115 316 127 q 350 70 347 95 q 346 20 353 45 q 326 -26 339 -5 q 298 -61 313 -48 q 259 -84 283 -76 q 210 -92 236 -92 q 151 -78 176 -92 q 113 -40 125 -64 q 73 1 85 -26 q 60 59 58 33 q 72 107 62 86 q 97 143 82 128 q 121 165 111 157 q 155 184 136 177 q 192 192 173 191 q 174 222 180 202 q 161 225 165 222 q 139 254 148 232 q 128 309 130 277 q 134 381 126 342 q 162 462 142 421 q 188 497 170 477 q 170 502 178 499 q 153 507 161 504 q 89 559 111 524 q 37 629 49 585 q 31 714 26 673 q 58 789 37 755 q 115 852 79 824 q 200 899 151 880 q 351 926 272 926 q 480 902 423 926 q 570 835 537 878 q 600 806 587 822 q 623 772 613 791 m 345 405 q 414 460 378 431 q 482 519 450 488 q 539 583 514 550 q 578 652 565 616 q 591 725 592 688 q 570 804 590 763 q 486 881 545 853 q 349 909 427 909 q 205 883 273 909 q 126 840 159 865 q 73 782 92 814 q 48 712 53 749 q 53 633 43 674 q 65 606 57 618 q 82 585 73 593 q 102 570 92 576 q 122 560 113 564 q 164 550 141 553 q 212 549 188 547 q 259 558 236 551 q 299 578 281 566 q 353 626 330 597 q 387 688 375 654 q 395 760 400 724 q 392 770 393 764 q 390 782 390 777 q 391 791 389 787 q 398 795 393 795 q 404 790 402 794 q 408 781 406 786 q 410 770 409 776 q 411 762 410 765 q 402 682 416 722 q 348 596 386 633 q 258 542 310 558 q 237 524 249 535 q 213 500 224 513 q 191 476 201 488 q 177 454 182 464 q 151 377 158 416 q 144 308 143 339 q 153 258 145 277 q 172 239 161 239 q 185 247 180 239 q 193 261 191 256 q 216 294 201 277 q 251 329 231 311 q 294 366 271 347 q 345 405 318 385 m 279 141 q 237 170 258 163 q 201 176 216 176 q 164 170 182 176 q 132 153 146 164 q 107 130 120 144 q 86 98 94 117 q 77 57 77 80 q 88 7 76 35 q 120 -26 98 -14 q 172 -38 142 -38 q 215 -31 195 -38 q 249 -11 235 -24 q 273 20 261 1 q 292 60 286 39 q 296 103 298 81 q 279 141 294 125 z "},"'":{"ha":382,"x_min":39,"x_max":419,"o":"m 362 884 q 393 857 381 874 q 410 818 404 839 q 418 777 416 798 q 418 741 419 756 q 397 674 416 711 q 348 596 378 636 q 283 518 319 557 q 214 450 248 480 q 151 402 180 420 q 105 384 121 384 q 93 388 98 384 q 85 397 88 391 q 81 411 82 404 q 79 424 79 418 q 70 422 75 423 q 58 424 64 421 q 42 452 45 431 q 44 500 39 472 q 59 562 49 528 q 82 629 69 595 q 108 694 94 663 q 133 751 121 726 q 152 791 144 776 q 159 807 159 806 q 184 847 170 825 q 214 886 197 868 q 250 917 231 905 q 292 928 269 928 q 332 917 315 928 q 362 884 350 905 m 364 780 q 363 819 365 796 q 353 862 361 842 q 330 898 345 883 q 292 912 315 912 q 256 901 273 912 q 224 873 239 890 q 197 836 210 856 q 174 799 184 816 q 146 742 161 776 q 115 670 130 708 q 87 594 100 632 q 66 523 74 555 q 57 468 58 490 q 65 439 56 445 q 95 449 77 439 q 137 477 114 459 q 185 518 159 494 q 235 568 210 541 q 282 624 260 595 q 323 680 305 652 q 352 734 340 708 q 364 780 363 760 z "},":":{"ha":391,"x_min":35,"x_max":401,"o":"m 372 178 q 398 120 395 153 q 393 57 401 88 q 367 -3 385 25 q 332 -47 350 -31 q 282 -77 312 -66 q 219 -87 252 -87 q 146 -72 178 -87 q 98 -27 115 -56 q 54 20 68 -9 q 38 96 35 62 q 53 157 40 130 q 85 203 66 184 q 117 233 103 222 q 165 258 138 249 q 218 267 191 267 q 244 265 230 267 q 273 257 258 263 q 303 242 288 252 q 334 216 319 232 q 345 201 339 210 q 372 178 359 191 m 283 3 q 315 43 299 18 q 339 96 331 68 q 345 153 347 125 q 321 204 342 182 q 294 228 308 218 q 267 242 281 237 q 241 249 254 247 q 218 251 229 251 q 170 243 194 251 q 127 220 146 235 q 94 190 111 208 q 66 148 77 172 q 54 93 55 123 q 69 27 53 63 q 112 -17 83 -1 q 181 -33 141 -33 q 238 -24 212 -33 q 283 3 265 -14 m 372 739 q 398 681 395 713 q 393 617 401 649 q 367 558 385 586 q 332 513 350 530 q 282 484 312 494 q 219 473 252 473 q 146 489 178 473 q 98 534 115 505 q 54 581 68 551 q 38 657 35 623 q 53 718 40 691 q 85 764 66 745 q 117 793 103 783 q 165 819 138 810 q 218 828 191 828 q 244 826 230 828 q 273 818 258 824 q 303 803 288 812 q 334 777 319 793 q 345 762 339 770 q 372 739 359 751 m 283 564 q 315 604 299 578 q 339 657 331 629 q 345 714 347 686 q 321 765 342 743 q 294 788 308 779 q 267 803 281 798 q 241 810 254 808 q 218 812 229 812 q 170 804 194 812 q 127 781 146 795 q 94 751 111 769 q 66 708 77 732 q 54 654 55 684 q 69 588 53 624 q 112 544 83 559 q 181 528 141 528 q 238 537 212 528 q 283 564 265 547 z "},";":{"ha":497,"x_min":44,"x_max":509,"o":"m 479 739 q 506 681 503 713 q 501 617 509 649 q 475 558 492 586 q 440 513 458 530 q 390 484 420 494 q 327 473 360 473 q 254 489 286 473 q 205 534 222 505 q 162 581 176 551 q 145 657 143 623 q 161 718 148 691 q 193 764 174 745 q 224 793 211 783 q 273 819 246 810 q 326 828 299 828 q 352 826 338 828 q 381 818 366 824 q 411 803 396 812 q 441 777 427 793 q 452 762 447 770 q 479 739 467 751 m 391 564 q 423 604 407 578 q 447 657 439 629 q 452 714 455 686 q 429 765 450 743 q 402 788 416 779 q 375 803 389 798 q 349 810 361 808 q 326 812 336 812 q 278 804 302 812 q 235 781 254 795 q 202 751 219 769 q 174 708 185 732 q 162 654 163 684 q 177 588 161 624 q 220 544 191 559 q 289 528 249 528 q 346 537 319 528 q 391 564 373 547 m 367 81 q 397 54 386 72 q 415 16 409 37 q 422 -25 421 -5 q 423 -62 424 -46 q 402 -129 421 -91 q 353 -206 382 -166 q 288 -284 323 -245 q 219 -352 253 -322 q 155 -400 184 -382 q 110 -418 126 -418 q 90 -406 95 -418 q 84 -378 85 -393 q 74 -379 80 -379 q 63 -378 68 -380 q 47 -351 50 -371 q 49 -302 44 -330 q 64 -241 54 -274 q 86 -174 74 -208 q 113 -108 99 -140 q 138 -51 126 -76 q 156 -11 149 -26 q 164 5 163 4 l 168 11 q 190 47 177 27 q 219 85 203 67 q 255 114 235 102 q 296 126 274 126 q 337 114 319 126 q 367 81 355 102 m 369 -22 q 368 17 370 -6 q 358 60 366 39 q 335 95 350 81 q 296 110 320 110 q 261 99 277 110 q 230 71 244 87 q 203 36 215 55 q 182 2 191 17 l 178 -3 q 151 -60 166 -26 q 120 -132 135 -94 q 92 -209 104 -170 q 71 -279 79 -247 q 61 -335 62 -312 q 70 -363 60 -357 q 100 -353 81 -363 q 141 -326 119 -343 q 190 -284 164 -308 q 240 -234 215 -261 q 287 -179 264 -208 q 328 -122 310 -150 q 356 -68 345 -94 q 369 -22 368 -43 z "},"=":{"ha":709,"x_min":7,"x_max":745,"o":"m 730 196 q 736 149 745 174 q 691 109 728 128 q 598 75 654 90 q 475 52 543 60 q 338 43 407 43 q 247 47 291 43 q 163 60 203 51 q 133 68 149 62 q 102 82 117 74 q 75 101 87 90 q 56 125 63 111 q 10 184 16 151 q 24 226 7 205 q 72 262 39 244 q 151 294 104 279 q 255 317 197 308 q 378 326 313 326 q 427 322 398 325 q 487 314 455 319 q 553 301 519 309 q 615 283 586 294 q 666 257 644 272 q 697 224 688 243 q 730 196 720 211 m 682 192 q 678 224 689 208 q 647 251 668 239 q 598 272 626 262 q 539 288 571 281 q 478 299 508 295 q 422 306 448 304 q 378 309 396 309 q 259 300 315 309 q 158 279 203 292 q 82 249 114 266 q 37 215 51 232 q 26 187 24 201 q 41 158 29 171 q 67 137 52 146 q 99 122 83 127 q 130 113 116 116 q 211 102 168 106 q 300 98 254 98 q 436 106 370 98 q 555 129 503 115 q 642 159 608 142 q 682 192 676 176 m 730 666 q 736 618 745 644 q 691 579 728 598 q 598 545 654 560 q 475 522 543 530 q 338 513 407 513 q 247 517 291 513 q 163 530 203 521 q 133 538 149 532 q 102 552 117 544 q 75 571 87 560 q 56 595 63 581 q 10 654 16 621 q 24 696 7 675 q 72 732 39 714 q 151 764 104 749 q 255 787 197 778 q 378 795 313 795 q 427 792 398 795 q 487 784 455 789 q 553 771 519 779 q 615 753 586 764 q 666 727 644 742 q 697 694 688 713 q 730 666 720 681 m 682 662 q 678 694 689 678 q 647 721 668 709 q 598 742 626 732 q 539 758 571 751 q 478 769 508 765 q 422 776 448 774 q 378 779 396 779 q 259 770 315 779 q 158 749 203 762 q 82 719 114 736 q 37 685 51 702 q 26 657 24 671 q 41 628 29 641 q 67 607 52 616 q 99 592 83 597 q 130 583 116 586 q 211 572 168 576 q 300 568 254 568 q 436 576 370 568 q 555 599 503 585 q 642 629 608 612 q 682 662 676 646 z "},"a":{"ha":814,"x_min":20,"x_max":838,"o":"m 828 525 q 834 455 831 498 q 838 361 838 412 q 833 256 838 311 q 818 148 829 201 q 788 50 807 96 q 741 -29 770 3 q 618 -87 691 -87 q 511 -27 555 -87 q 430 94 462 6 q 229 -84 393 -77 q 172 -74 196 -84 q 130 -43 148 -64 q 117 -28 124 -38 q 103 -17 110 -22 q 92 -5 97 -12 q 35 139 50 41 q 34 376 20 237 q 53 505 40 439 q 86 631 65 570 q 136 746 106 692 q 208 841 166 800 q 304 904 250 881 q 429 928 359 928 q 514 919 475 928 q 585 896 553 911 q 643 861 617 881 q 689 816 669 840 q 749 750 724 787 q 789 675 773 713 q 815 597 806 636 q 828 525 824 558 m 691 19 q 736 95 719 50 q 765 192 754 140 q 779 297 775 243 q 783 400 783 351 q 780 492 783 450 q 774 561 777 534 q 758 642 768 601 q 730 723 747 684 q 686 796 712 762 q 623 856 660 830 q 539 896 587 881 q 429 911 491 911 q 310 888 362 911 q 218 826 258 865 q 149 735 178 787 q 100 623 120 682 q 68 499 80 563 q 50 375 56 436 q 50 144 37 239 q 104 5 64 50 q 140 -21 119 -12 q 191 -30 161 -30 q 276 -11 240 -28 q 337 40 313 6 q 373 125 361 73 q 389 248 386 176 q 391 264 390 259 q 399 269 392 269 q 406 265 405 269 q 411 244 408 260 q 580 -33 454 -33 q 691 19 646 -33 m 410 599 q 475 559 450 599 q 473 548 479 552 q 461 550 467 544 q 410 582 440 582 q 382 572 395 582 q 359 547 369 563 q 354 543 357 543 q 349 544 351 543 q 345 548 346 545 q 345 555 343 551 q 374 587 357 575 q 410 599 391 598 z "},"b":{"ha":828,"x_min":24,"x_max":854,"o":"m 802 352 q 843 262 833 313 q 840 160 854 211 q 793 63 827 107 q 709 -13 759 19 q 597 -61 660 -44 q 465 -79 535 -79 q 432 -78 455 -79 q 379 -74 409 -77 q 315 -67 349 -72 q 248 -53 281 -62 q 187 -32 215 -45 q 140 -1 159 -20 q 132 8 136 3 q 123 20 127 14 q 112 28 117 24 q 102 36 106 32 q 71 79 84 54 q 50 136 58 105 q 35 199 41 166 q 27 266 30 233 q 25 329 25 298 q 25 385 24 359 q 32 491 26 437 q 44 595 37 545 q 62 692 52 646 q 84 775 73 738 q 109 838 96 812 q 135 876 122 864 q 213 913 163 900 q 326 926 262 926 q 410 920 369 926 q 490 903 452 914 q 561 876 528 892 q 622 839 595 859 q 669 793 648 819 q 727 727 706 763 q 753 653 748 692 q 746 581 757 616 q 711 515 735 546 q 684 488 699 501 q 651 465 669 475 q 721 430 694 451 q 765 388 749 409 q 802 352 786 372 m 787 201 q 789 296 798 249 q 751 380 780 343 q 660 445 716 422 q 527 467 603 467 l 518 467 q 450 460 486 460 q 428 461 439 460 q 405 463 416 462 q 399 467 401 464 q 398 473 397 469 q 406 479 399 479 q 429 477 418 478 q 451 476 439 476 q 571 499 516 476 q 660 564 627 522 q 692 624 682 592 q 698 689 702 656 q 672 762 694 728 q 612 826 650 797 q 554 861 587 845 q 484 887 522 876 q 406 904 447 898 q 325 909 366 909 q 218 897 264 909 q 146 863 171 885 q 121 827 134 852 q 98 765 109 801 q 77 684 87 728 q 60 589 68 639 q 47 487 52 539 q 41 384 43 435 q 57 172 38 258 q 114 48 75 85 q 169 15 134 28 q 247 -7 204 1 q 336 -20 290 -16 q 427 -24 383 -24 q 542 -10 484 -24 q 650 33 600 4 q 736 103 699 61 q 787 201 772 146 m 449 286 q 473 282 461 286 q 496 273 486 279 q 513 258 506 267 q 522 239 520 250 q 511 209 524 224 q 486 189 502 197 q 454 178 470 180 q 428 182 441 178 q 405 192 415 185 q 388 207 395 198 q 380 226 381 216 q 391 258 378 243 q 414 277 399 269 q 449 286 429 284 m 406 654 q 377 645 391 654 q 353 620 363 635 q 342 618 349 614 q 339 629 335 621 q 369 659 351 648 q 406 671 387 670 q 473 633 447 671 q 475 627 475 630 q 471 621 474 623 q 465 620 469 620 q 460 623 462 620 q 406 654 438 654 m 498 220 q 504 230 502 222 q 483 231 494 232 q 463 227 473 231 q 446 215 454 222 q 435 197 439 208 q 448 195 441 195 q 475 201 462 195 q 498 220 489 208 z "},"c":{"ha":812,"x_min":25,"x_max":834,"o":"m 764 412 q 789 391 777 404 q 811 359 801 378 q 828 313 821 340 q 834 250 834 286 q 798 110 834 171 q 682 -7 762 48 q 571 -63 631 -44 q 448 -82 511 -82 q 254 -35 349 -82 q 207 -5 229 -23 q 166 35 185 13 q 105 103 131 64 q 61 189 79 142 q 35 286 44 235 q 26 387 26 336 q 32 487 25 438 q 54 578 39 536 q 167 772 93 692 q 347 896 241 852 q 499 928 424 928 q 619 904 564 928 q 715 838 675 881 q 721 832 718 834 q 726 826 723 829 q 740 813 733 819 q 753 800 747 806 q 815 690 796 753 q 828 553 834 627 q 820 522 827 538 q 800 490 812 505 q 771 463 788 475 q 734 444 755 450 q 764 412 751 431 m 635 43 q 700 98 673 71 q 745 155 728 125 q 771 217 763 184 q 780 287 780 250 q 769 365 780 333 q 741 416 758 396 q 702 444 724 435 q 659 453 680 453 q 562 446 600 452 q 503 431 525 439 q 473 414 481 423 q 462 399 464 406 q 447 349 456 373 q 427 300 437 324 q 416 296 423 294 q 412 307 408 300 l 414 313 q 421 330 417 320 q 430 352 425 340 q 438 376 434 363 q 450 422 444 399 q 457 471 456 445 q 458 515 458 493 q 454 559 457 537 q 449 586 452 572 q 443 609 446 599 q 439 627 441 620 l 437 633 q 438 640 436 637 q 445 644 440 644 q 453 638 451 644 q 459 616 453 637 q 470 562 465 596 q 488 530 473 544 q 525 508 503 517 q 574 494 547 498 q 628 490 601 490 q 650 490 639 490 q 671 492 661 491 q 710 505 692 495 q 742 530 728 515 q 764 561 756 544 q 774 593 772 577 q 762 722 779 663 q 703 826 744 781 q 613 889 665 867 q 499 911 561 911 q 353 880 426 911 q 179 760 251 838 q 70 573 108 682 q 48 480 56 532 q 44 375 41 429 q 57 267 46 321 q 91 164 68 212 q 145 78 113 117 q 224 18 178 40 q 410 -28 314 -28 q 528 -9 470 -28 q 635 43 586 9 m 511 484 q 512 468 512 476 l 512 452 q 528 456 519 454 q 546 460 536 458 q 511 484 525 470 z "},"d":{"ha":781,"x_min":26,"x_max":805,"o":"m 693 715 q 750 636 726 680 q 787 543 774 592 q 803 440 800 493 q 796 331 805 387 q 764 214 786 270 q 710 109 742 157 q 638 21 678 60 q 551 -43 597 -18 q 506 -63 531 -54 q 452 -77 481 -71 q 392 -86 423 -83 q 328 -89 360 -89 q 178 -67 239 -89 q 93 -7 117 -46 q 49 41 63 13 q 37 94 42 56 q 29 184 32 132 q 26 301 26 237 q 28 433 26 366 q 36 567 31 500 q 49 693 41 634 q 69 800 58 753 q 96 876 81 848 q 138 913 115 909 q 190 919 164 917 q 241 920 216 920 q 356 910 303 920 q 451 885 408 901 q 529 850 494 869 q 589 811 563 831 q 633 774 615 791 q 662 746 651 757 q 680 729 673 736 q 693 715 688 721 m 742 372 q 748 477 751 425 q 733 575 746 528 q 698 665 721 623 q 643 742 675 707 q 598 783 629 756 q 516 837 566 810 q 398 884 467 864 q 241 904 329 904 q 191 902 216 904 q 140 897 166 900 q 111 868 126 895 q 84 794 96 841 q 65 689 73 747 q 52 564 57 631 q 45 431 47 498 q 43 302 43 365 q 46 187 43 239 q 53 98 49 135 q 64 48 58 62 q 99 9 75 25 q 154 -17 123 -7 q 221 -31 185 -26 q 290 -35 256 -35 q 352 -32 321 -35 q 410 -23 382 -29 q 462 -9 438 -18 q 505 9 486 -1 q 589 72 550 34 q 659 156 628 109 q 711 258 690 203 q 742 372 732 313 m 401 499 q 420 493 411 499 q 435 478 429 487 q 445 458 441 469 q 448 439 448 448 q 434 405 448 419 q 401 391 420 391 q 367 405 381 391 q 353 439 353 419 q 356 458 353 448 q 367 478 360 469 q 382 493 373 487 q 401 499 391 499 m 408 408 q 427 421 419 412 q 431 444 435 431 q 417 430 423 440 q 408 408 410 420 z "},"e":{"ha":735,"x_min":23,"x_max":760,"o":"m 747 197 q 751 94 760 142 q 713 9 743 46 q 664 -37 692 -19 q 603 -67 635 -56 q 533 -82 570 -78 q 457 -87 496 -87 q 362 -82 412 -87 q 266 -65 313 -78 q 177 -31 218 -53 q 109 26 136 -9 q 34 152 45 75 q 24 278 26 208 q 27 422 23 349 q 41 568 32 496 q 64 702 51 640 q 94 810 77 764 q 129 878 111 857 q 211 919 152 904 q 357 934 271 934 q 446 929 400 934 q 532 914 491 924 q 605 890 572 905 q 654 854 637 875 q 665 839 661 847 q 692 817 682 829 q 725 758 714 790 q 734 693 735 726 q 720 631 732 661 q 682 579 707 601 q 587 524 644 545 q 597 509 594 516 q 648 427 642 485 q 622 361 651 391 q 674 314 652 343 q 715 272 694 300 q 747 197 736 244 m 663 56 q 697 135 689 91 q 693 231 705 180 q 666 297 684 271 q 626 338 648 323 q 583 359 604 353 q 546 366 561 366 l 537 366 q 464 339 505 349 q 382 330 423 330 q 355 332 368 330 q 328 335 341 333 q 321 345 320 336 q 331 351 323 351 q 356 348 343 349 q 383 347 370 347 q 436 351 410 347 q 487 362 463 355 q 532 381 511 370 q 566 404 552 391 q 593 463 595 431 q 496 546 587 541 q 437 536 467 540 q 374 533 406 533 q 355 533 364 533 q 337 534 347 534 q 331 537 334 534 q 330 543 329 539 q 338 551 330 551 q 356 550 347 550 l 374 550 q 523 570 457 550 q 633 629 589 590 q 667 675 655 648 q 679 732 678 703 q 671 791 680 762 q 642 844 662 820 q 600 873 628 860 q 535 896 572 886 q 452 912 497 906 q 357 918 406 918 q 218 904 275 918 q 141 867 161 891 q 108 802 123 847 q 79 695 92 756 q 57 563 66 634 q 44 418 48 491 q 41 277 40 346 q 50 154 42 209 q 75 86 56 115 q 122 37 94 58 q 185 3 150 16 q 259 -19 220 -11 q 339 -30 298 -26 q 419 -33 380 -33 q 485 -30 451 -33 q 550 -17 518 -26 q 611 10 583 -7 q 663 56 640 28 z "},"f":{"ha":719,"x_min":24,"x_max":747,"o":"m 674 825 q 730 750 714 797 q 735 652 747 703 q 719 606 730 627 q 692 569 707 585 q 656 543 676 553 q 614 529 637 533 q 616 525 616 526 q 635 513 625 520 q 649 499 645 507 q 640 437 665 472 q 608 413 631 423 q 551 399 585 404 q 461 395 505 393 q 519 328 497 367 q 548 246 541 290 q 547 156 555 202 q 514 66 538 109 q 418 -44 474 -6 q 296 -83 362 -83 q 193 -58 244 -83 q 167 -41 179 -52 q 144 -14 155 -30 q 59 136 90 20 q 36 259 44 192 q 26 395 28 326 q 27 532 24 464 q 40 657 31 600 q 62 760 49 715 q 91 829 75 805 q 193 901 123 876 q 359 926 262 926 q 428 922 393 926 q 495 913 463 919 q 557 898 528 907 q 612 878 587 888 q 674 825 651 859 m 542 578 q 598 589 574 578 q 639 617 622 600 q 666 656 656 635 q 681 699 677 677 q 684 745 686 721 q 673 791 682 769 q 648 832 665 814 q 605 863 631 851 q 551 881 581 873 q 489 895 522 889 q 422 904 456 901 q 355 907 389 907 q 294 904 329 907 q 223 892 259 901 q 156 865 188 883 q 104 819 124 848 q 77 753 89 797 q 56 652 64 709 q 44 528 48 595 q 43 393 41 461 q 52 259 45 325 q 75 140 60 194 q 112 44 90 81 q 162 -5 134 7 q 260 -28 212 -28 q 372 8 320 -28 q 462 112 424 44 q 494 205 487 157 q 490 297 500 254 q 454 378 480 341 q 387 437 428 414 q 301 469 329 447 q 298 474 298 471 q 300 480 298 477 q 305 484 301 483 q 311 481 309 484 q 340 467 323 473 q 376 456 357 460 q 416 451 395 452 q 454 449 436 449 q 499 451 472 449 q 551 462 527 454 q 590 486 576 470 q 597 528 605 501 q 565 553 588 543 q 513 568 542 563 q 453 576 484 574 q 399 578 422 578 l 380 578 q 364 577 372 578 q 356 585 356 577 q 357 591 355 588 q 363 593 359 593 q 379 595 370 595 q 399 595 389 595 q 425 595 409 595 q 460 592 441 594 q 500 587 479 591 q 542 578 522 584 z "},"g":{"ha":828,"x_min":23,"x_max":848,"o":"m 848 211 q 848 159 848 189 q 845 95 848 128 q 834 30 842 62 q 810 -31 826 -3 q 770 -77 795 -58 q 709 -100 745 -96 q 625 -91 665 -107 q 555 -37 585 -75 q 510 11 530 -18 q 477 -21 498 -5 q 431 -50 456 -37 q 376 -71 405 -63 q 319 -79 347 -79 q 248 -63 279 -79 q 163 3 200 -41 q 103 72 129 31 q 60 160 77 112 q 34 261 43 208 q 24 369 25 315 q 30 474 23 422 q 52 572 37 526 q 102 690 72 635 q 168 786 132 744 q 247 858 205 828 q 336 901 290 887 q 473 921 407 921 q 597 899 542 921 q 693 834 653 877 q 699 828 696 831 q 705 821 701 825 q 719 808 713 814 q 731 797 726 802 q 791 688 773 751 q 803 547 809 625 q 781 488 801 517 q 732 443 762 459 q 776 401 758 429 q 801 381 788 394 q 824 345 813 368 q 841 290 834 323 q 848 211 848 258 m 669 -46 q 723 -24 701 -42 q 759 20 745 -7 q 781 79 773 46 q 791 145 788 111 q 793 211 793 178 q 793 269 793 243 q 782 350 793 317 q 755 403 772 382 q 718 432 739 423 q 675 441 696 441 q 630 439 652 441 q 586 431 608 437 q 543 410 564 424 q 500 374 522 397 q 482 345 491 364 q 467 307 473 326 q 456 274 460 288 l 452 260 q 444 254 450 254 q 435 262 435 254 q 437 294 436 273 q 438 343 437 315 q 440 401 439 370 q 442 460 441 431 q 441 485 442 469 q 437 519 439 500 q 433 556 435 537 q 428 591 430 575 q 424 617 426 607 q 422 629 422 628 q 425 636 422 633 q 431 639 427 639 q 439 633 436 639 l 440 625 q 445 607 442 618 q 450 582 447 596 q 455 553 453 568 q 472 521 458 535 q 508 498 487 507 q 555 484 530 488 q 608 479 581 479 q 629 479 618 479 q 650 481 640 480 q 688 495 670 485 q 719 521 705 506 q 740 553 732 536 q 749 586 747 570 q 738 720 755 660 q 681 823 720 780 q 591 884 644 863 q 473 905 538 905 q 340 884 408 905 q 256 843 296 871 q 180 774 215 815 q 116 681 145 733 q 68 566 87 628 q 46 467 53 522 q 41 356 39 413 q 54 242 43 298 q 86 137 64 186 q 139 49 107 87 q 216 -11 172 10 q 281 -24 247 -24 q 348 -13 315 -24 q 407 14 381 -2 q 450 47 433 30 q 469 77 467 65 q 471 87 469 81 q 480 93 473 93 q 489 88 486 93 q 497 71 492 83 q 525 22 508 45 q 563 -19 541 -2 q 610 -44 584 -36 q 669 -46 637 -52 m 492 479 q 496 422 496 439 q 496 408 496 415 q 496 393 496 401 q 527 420 511 409 q 557 438 543 431 q 492 479 513 452 z "},"h":{"ha":894,"x_min":24,"x_max":915,"o":"m 911 436 q 914 317 915 377 q 906 202 913 258 q 886 98 899 146 q 855 11 873 49 q 811 -51 836 -26 q 755 -82 787 -75 q 696 -89 726 -89 q 606 -71 645 -89 q 543 -20 566 -53 q 491 45 507 6 q 480 85 484 62 q 474 135 476 109 q 470 191 471 162 q 469 224 469 208 q 468 183 469 205 q 465 117 467 150 q 459 56 463 85 q 447 7 454 27 q 409 -46 434 -25 q 352 -78 384 -67 q 286 -89 321 -88 q 220 -82 252 -90 q 144 -28 178 -73 q 100 19 119 -12 q 66 88 80 49 q 42 173 52 127 q 29 270 33 220 q 24 372 24 320 q 27 474 24 424 q 38 575 31 524 q 59 675 46 627 q 90 767 72 724 q 130 843 107 810 q 182 896 153 876 q 245 918 211 916 q 289 916 271 919 q 323 905 308 912 q 349 886 338 897 q 371 860 361 875 q 402 831 389 848 q 426 793 416 814 q 444 751 436 773 q 458 708 452 729 q 462 688 460 699 q 465 663 464 677 q 472 710 469 689 q 480 746 476 732 q 502 810 490 779 q 534 867 515 842 q 582 905 553 891 q 654 918 611 920 q 762 854 714 913 q 822 781 796 827 q 867 677 848 734 q 896 558 885 621 q 911 436 907 495 m 714 -28 q 765 2 743 -22 q 805 63 788 26 q 834 147 822 100 q 852 248 846 195 q 859 359 858 302 q 857 473 861 416 q 844 576 852 525 q 824 674 836 627 q 794 762 811 721 q 756 833 777 802 q 709 881 734 863 q 653 901 683 899 q 591 892 616 905 q 548 858 566 880 q 518 805 530 836 q 496 741 506 774 q 487 695 491 724 q 479 635 482 667 q 474 571 476 604 q 472 514 472 539 q 519 498 505 511 q 522 493 522 496 q 519 487 522 490 q 514 484 517 485 q 509 486 511 484 q 484 496 501 492 q 444 500 466 500 q 370 485 400 500 q 364 485 367 484 q 360 489 361 486 q 359 495 358 492 q 363 500 359 498 q 387 509 374 505 q 415 514 400 513 l 415 581 q 414 645 415 614 q 411 700 413 675 q 404 741 408 725 q 383 802 394 773 q 356 853 372 831 q 316 889 340 876 q 259 902 293 902 q 198 885 226 902 q 148 838 170 868 q 107 767 125 808 q 77 679 90 726 q 56 579 64 631 q 43 473 47 526 q 40 359 39 416 q 48 248 41 302 q 66 147 54 195 q 95 63 77 100 q 135 2 112 26 q 186 -28 157 -22 q 244 -34 212 -35 q 304 -25 275 -34 q 357 2 334 -17 q 393 51 381 20 q 405 102 401 71 q 412 167 410 132 q 414 236 414 201 q 414 301 414 271 l 414 330 q 415 353 414 343 q 363 368 384 357 q 359 373 359 370 q 360 378 359 376 q 364 383 361 381 q 370 382 367 385 q 444 368 399 368 q 484 372 466 368 q 509 382 501 376 q 514 382 511 383 q 519 379 517 381 q 522 374 522 377 q 519 369 522 372 q 485 355 509 359 l 485 300 q 486 236 485 271 q 488 166 486 201 q 494 102 490 132 q 507 51 498 71 q 563 -12 522 11 q 659 -35 604 -35 q 714 -28 686 -35 z "},"i":{"ha":449,"x_min":24,"x_max":477,"o":"m 397 837 q 460 686 443 787 q 467 424 477 585 q 457 337 464 379 q 442 253 451 294 q 423 169 433 211 q 401 84 412 127 q 384 31 394 60 q 358 -23 374 1 q 319 -65 342 -48 q 263 -81 296 -81 q 205 -66 231 -81 q 157 -24 179 -52 q 114 21 132 -7 q 84 80 96 48 q 63 143 71 111 q 50 200 55 175 q 35 288 40 241 q 26 382 29 335 q 24 472 24 429 q 28 552 25 516 q 94 832 42 741 q 236 924 145 924 q 359 874 313 924 q 372 858 367 866 q 397 837 387 848 m 412 463 q 407 719 422 621 q 347 863 391 817 q 236 907 305 907 q 105 819 153 907 q 44 551 58 730 q 41 472 41 515 q 42 382 40 429 q 50 290 45 336 q 65 203 56 244 q 76 159 70 184 q 91 109 82 134 q 112 58 100 83 q 140 15 123 34 q 177 -16 156 -5 q 225 -28 198 -28 q 274 -12 254 -28 q 308 26 294 3 q 331 76 322 50 q 347 126 340 103 q 390 290 373 206 q 412 463 407 373 m 163 990 q 119 1038 133 1008 q 102 1114 100 1080 q 118 1175 104 1148 q 149 1221 131 1202 q 181 1251 168 1240 q 229 1276 203 1267 q 283 1285 256 1285 q 308 1283 294 1285 q 337 1275 322 1281 q 368 1260 353 1270 q 398 1234 383 1250 q 404 1227 401 1230 q 409 1220 406 1223 q 436 1196 423 1211 q 463 1139 459 1171 q 458 1075 467 1107 q 432 1015 449 1043 q 397 971 414 987 q 347 942 377 952 q 283 931 317 931 q 212 946 243 931 q 163 990 180 962 m 191 1238 q 159 1208 176 1226 q 131 1165 142 1190 q 119 1111 120 1141 q 134 1045 117 1081 q 177 1001 147 1017 q 245 985 206 985 q 303 994 276 985 q 347 1021 330 1004 q 379 1061 363 1036 q 404 1114 395 1086 q 409 1171 412 1143 q 386 1222 406 1200 q 359 1245 372 1236 q 332 1260 345 1255 q 306 1267 318 1265 q 283 1269 293 1269 q 235 1261 258 1269 q 191 1238 211 1253 z "},"j":{"ha":996,"x_min":21,"x_max":1017,"o":"m 1012 721 q 1016 692 1015 710 q 1014 652 1017 674 q 1001 605 1010 629 q 974 555 992 580 q 949 528 964 543 q 912 500 934 513 q 862 474 890 486 q 795 456 833 463 q 813 392 807 429 q 818 310 819 354 q 808 219 817 267 q 780 127 799 172 q 755 77 770 103 q 719 27 740 52 q 670 -19 698 2 q 605 -53 642 -40 q 521 -74 567 -66 q 427 -81 475 -81 q 326 -73 374 -81 q 238 -51 278 -65 q 165 -15 197 -36 q 113 33 134 7 q 78 66 93 49 q 54 103 64 83 q 28 178 36 140 q 24 252 21 216 q 40 320 27 288 q 77 380 54 353 q 151 438 108 418 q 243 458 195 458 q 322 444 285 458 q 385 393 359 429 l 399 383 q 399 417 399 403 l 399 445 q 185 534 243 454 q 143 576 159 553 q 120 630 125 602 q 116 684 115 658 q 125 733 118 711 q 140 772 132 756 q 286 890 180 851 q 566 929 391 929 l 612 929 q 708 924 661 928 q 800 910 756 920 q 879 880 843 899 q 941 827 916 860 q 1012 721 993 788 m 922 603 q 946 646 938 624 q 959 688 955 667 q 962 725 962 708 q 958 754 961 743 q 909 837 943 806 q 827 884 874 868 q 725 906 781 901 q 612 912 669 911 q 587 913 599 913 l 565 913 q 294 876 396 913 q 155 764 193 839 q 141 729 147 750 q 133 684 135 709 q 137 634 132 660 q 157 585 142 608 q 248 519 186 541 q 404 498 310 498 q 447 498 429 498 q 481 500 465 499 q 491 493 490 500 q 483 484 491 486 q 453 482 468 483 q 420 481 437 481 q 415 442 416 469 q 416 385 415 415 q 416 338 416 363 q 415 291 416 314 q 413 258 415 276 q 404 224 410 241 q 388 194 398 208 q 360 173 377 180 q 350 178 352 173 q 355 189 347 186 l 358 191 q 368 198 362 193 q 379 212 373 203 q 390 235 385 221 q 395 259 393 246 q 398 290 397 273 q 387 353 398 325 q 356 400 376 380 q 308 431 336 420 q 244 442 279 442 q 158 424 199 442 q 89 370 118 405 q 55 314 67 345 q 40 250 43 283 q 45 181 38 216 q 69 111 52 146 q 123 46 87 73 q 203 4 159 20 q 297 -19 248 -12 q 391 -26 347 -26 q 482 -20 438 -26 q 561 0 526 -13 q 622 32 595 12 q 669 76 648 52 q 703 124 689 99 q 727 171 718 149 q 752 248 742 208 q 764 330 762 288 q 761 412 766 372 q 741 491 755 453 q 670 485 706 486 q 664 487 667 485 q 662 493 662 490 q 664 499 662 496 q 670 501 666 501 q 823 529 759 503 q 922 603 886 555 z "},"k":{"ha":951,"x_min":24,"x_max":980,"o":"m 921 286 q 968 170 957 229 q 966 58 980 111 q 934 -10 956 20 q 880 -58 911 -40 q 783 -83 833 -83 q 680 -57 732 -83 q 587 18 628 -30 q 548 57 566 35 q 497 128 518 92 q 460 205 476 164 q 417 77 445 136 q 355 -20 389 18 q 254 -73 306 -73 q 156 -33 196 -73 q 148 -24 152 -28 q 139 -12 144 -19 q 118 5 127 -5 q 47 161 71 53 q 25 443 24 269 q 31 547 25 492 q 48 655 37 602 q 78 756 60 708 q 120 841 96 804 q 175 899 144 878 q 243 921 205 921 q 313 903 279 921 q 372 852 346 886 q 423 796 401 831 q 457 715 444 761 q 509 790 478 752 q 576 859 539 828 q 657 908 614 889 q 746 928 700 928 q 859 868 812 928 l 860 868 q 918 791 901 840 q 919 685 936 739 q 852 585 902 631 q 777 531 819 554 q 686 494 734 507 q 765 449 726 476 q 841 381 805 421 q 921 286 889 338 m 912 100 q 914 205 925 150 q 869 315 903 260 q 796 403 837 367 q 712 462 755 439 q 630 497 669 485 q 561 515 590 510 q 554 524 554 517 q 562 532 554 532 q 610 539 581 533 q 672 556 639 545 q 739 587 705 568 q 803 634 773 606 q 864 727 848 677 q 864 823 880 776 q 820 886 850 861 q 746 911 789 911 q 671 897 707 911 q 602 858 635 882 q 541 803 569 834 q 492 740 513 772 q 456 677 470 708 q 437 621 442 646 q 429 614 436 614 q 421 621 421 614 q 406 738 419 686 q 369 827 393 790 q 314 884 346 864 q 243 905 282 905 q 185 886 212 905 q 136 834 159 867 q 96 757 114 802 q 66 662 79 713 q 48 554 54 610 q 41 443 41 498 q 63 167 41 273 q 130 17 85 62 q 216 -18 164 -18 q 305 29 261 -18 q 356 105 334 60 q 394 199 379 151 q 416 295 410 248 q 420 378 423 342 q 427 387 418 386 l 428 387 q 436 380 435 387 q 452 294 444 335 q 475 215 461 254 q 509 141 488 177 q 560 68 529 104 q 648 -4 600 22 q 745 -29 697 -29 q 833 -5 791 -29 q 883 37 863 10 q 912 100 903 64 z "},"l":{"ha":782,"x_min":24,"x_max":806,"o":"m 753 311 q 804 184 806 267 q 770 64 804 115 q 682 -19 736 14 q 558 -68 627 -52 q 415 -84 488 -84 q 261 -57 326 -83 q 152 22 196 -31 q 35 259 58 98 q 30 304 33 275 q 26 370 27 332 q 24 451 24 407 q 27 540 24 494 q 37 632 31 586 q 55 721 43 679 q 82 799 66 763 q 121 862 98 836 q 187 911 149 894 q 270 928 226 928 q 355 910 314 928 q 441 843 404 888 q 527 713 500 796 q 541 524 553 631 q 531 463 538 500 q 511 388 524 427 q 539 390 526 389 q 566 391 553 391 q 715 348 664 391 q 741 319 730 335 q 747 315 744 317 q 753 311 750 313 m 377 -30 q 470 -23 424 -30 q 556 -3 515 -17 q 633 31 597 10 q 694 79 668 52 q 734 143 720 107 q 749 222 749 178 q 704 336 751 297 q 566 374 658 374 q 448 361 514 374 q 378 286 416 300 q 372 286 375 284 q 368 290 369 287 q 372 301 366 298 q 415 338 395 309 q 449 406 434 368 q 473 487 464 444 q 487 564 483 529 q 487 677 493 625 q 463 773 481 730 q 416 847 445 816 q 349 895 387 878 q 270 911 309 911 q 194 896 229 911 q 134 851 159 880 q 86 766 104 817 q 58 657 68 715 q 44 537 47 599 q 41 422 41 476 q 45 325 41 368 q 51 261 48 282 q 152 42 72 113 q 377 -30 231 -29 z "},"m":{"ha":1085,"x_min":25,"x_max":1109,"o":"m 985 808 q 1023 747 1005 786 q 1055 658 1040 708 q 1080 549 1069 608 q 1097 430 1090 491 q 1107 309 1104 369 q 1107 195 1109 249 q 1099 97 1105 141 q 1080 23 1092 52 q 1055 -19 1072 1 q 1016 -54 1038 -39 q 969 -78 994 -69 q 919 -87 944 -87 q 882 -83 902 -87 q 841 -71 861 -79 q 801 -48 820 -62 q 767 -14 781 -35 q 742 7 753 -5 q 722 32 730 18 q 654 193 674 109 q 641 176 648 185 q 623 159 633 167 q 602 145 614 151 q 578 140 591 140 q 547 151 563 140 q 517 183 532 162 q 490 206 503 191 q 482 163 487 186 q 468 112 477 139 q 445 55 458 85 q 412 -5 431 26 q 378 -43 398 -28 q 337 -68 359 -59 q 294 -82 316 -78 q 254 -87 272 -87 q 176 -65 213 -87 q 113 -12 139 -44 q 77 22 92 4 q 54 60 62 41 q 35 134 42 90 q 27 232 28 178 q 28 346 25 286 q 37 467 31 406 q 55 587 44 528 q 80 695 65 645 q 112 784 94 745 q 150 846 130 823 q 183 875 163 862 q 226 898 203 888 q 273 913 249 908 q 319 919 297 919 q 415 894 371 919 q 493 831 459 869 q 505 821 500 825 q 515 811 511 816 q 558 753 539 787 q 618 848 578 807 q 693 901 652 882 q 777 919 734 919 q 877 895 830 919 q 958 831 923 870 q 968 824 962 829 q 985 808 975 818 m 1027 66 q 1045 137 1038 94 q 1053 233 1051 180 q 1052 345 1055 286 q 1042 464 1049 404 q 1025 581 1036 524 q 1002 688 1015 639 q 971 775 988 737 q 935 834 954 813 q 903 862 921 849 q 864 884 885 875 q 821 898 843 892 q 777 903 799 903 q 700 886 737 903 q 631 836 662 869 q 578 758 597 802 q 557 669 559 714 q 556 655 557 661 q 547 650 555 650 q 539 659 539 650 q 521 752 541 705 q 466 836 501 800 q 397 886 435 869 q 319 903 359 903 q 277 898 300 903 q 234 884 255 893 q 193 863 212 876 q 162 834 174 850 q 125 775 142 813 q 95 688 109 737 q 71 581 81 639 q 54 464 60 524 q 45 345 47 404 q 44 233 42 286 q 52 137 45 180 q 69 66 58 94 q 92 30 77 47 q 125 -2 106 12 q 166 -24 144 -16 q 210 -33 188 -33 q 298 -13 258 -33 q 360 41 338 6 q 409 139 393 92 q 432 226 426 187 q 439 291 439 264 q 438 326 439 317 q 440 332 437 330 q 445 335 442 334 q 451 334 448 335 q 454 328 454 332 q 469 281 459 305 q 490 238 478 258 q 515 206 502 218 q 540 193 528 193 q 569 204 555 193 q 595 232 583 216 q 617 267 608 248 q 631 301 626 286 q 642 330 637 317 q 650 335 644 335 q 656 332 654 334 q 659 326 659 330 q 657 291 657 317 q 664 226 657 264 q 687 139 671 187 q 736 41 704 92 q 798 -13 758 6 q 886 -33 838 -33 q 928 -25 907 -33 q 969 -3 950 -17 q 1004 28 988 10 q 1027 66 1019 46 z "},"n":{"ha":922,"x_min":28,"x_max":947,"o":"m 946 456 q 943 326 947 390 q 933 206 939 261 q 918 110 926 151 q 901 48 909 68 q 874 2 890 25 q 837 -41 858 -22 q 789 -72 815 -60 q 732 -84 763 -84 q 661 -64 694 -84 q 602 -13 629 -45 q 523 87 558 20 q 516 52 521 68 q 504 20 511 35 q 431 -58 480 -30 q 315 -88 381 -87 q 210 -66 258 -88 q 134 -7 161 -45 q 105 19 117 5 q 84 49 92 33 q 59 120 70 77 q 41 218 48 164 q 31 331 34 271 q 29 453 28 391 q 35 573 30 514 q 50 683 40 632 q 73 775 59 734 q 105 840 87 816 q 173 898 135 878 q 253 918 210 918 q 317 907 286 918 q 378 876 349 896 q 398 859 388 868 q 418 836 408 849 q 456 799 437 822 q 493 743 474 775 q 535 843 506 802 q 606 907 564 885 q 694 929 646 929 q 784 906 742 929 q 808 888 797 899 q 830 863 820 878 q 887 794 865 840 q 922 692 909 749 q 940 574 935 636 q 946 456 945 513 m 847 93 q 864 153 856 113 q 880 248 873 194 q 890 366 886 302 q 892 495 893 430 q 885 624 892 561 q 865 741 879 687 q 829 833 851 794 q 776 891 808 873 q 694 913 739 913 q 614 893 651 913 q 536 814 565 867 q 500 684 507 760 q 534 597 518 642 q 564 513 550 553 q 591 437 578 471 q 614 380 603 403 q 614 372 616 376 q 607 368 612 368 q 600 373 602 368 q 575 431 588 397 q 549 507 563 466 q 518 593 534 548 q 484 680 503 637 q 368 862 426 820 q 313 891 342 882 q 254 901 283 901 q 118 830 174 901 q 87 768 100 807 q 65 678 75 728 q 52 570 56 628 q 46 451 47 511 q 48 332 45 391 q 58 221 51 273 q 75 126 64 168 q 99 57 85 83 q 127 20 109 37 q 169 -9 145 3 q 219 -27 192 -21 q 275 -34 246 -34 q 384 -7 338 -33 q 451 64 429 19 q 463 235 484 134 q 448 280 455 257 q 432 330 440 304 l 410 395 q 388 461 399 429 q 365 523 376 494 q 343 576 354 553 q 343 584 342 580 q 351 588 345 588 q 358 583 356 588 q 380 530 369 559 q 403 467 392 500 q 426 401 414 435 q 448 334 437 367 q 470 265 459 298 q 490 205 481 233 q 519 132 503 173 q 561 55 536 92 q 618 -5 585 19 q 694 -30 650 -30 q 745 -19 721 -30 q 789 10 769 -7 q 823 50 808 28 q 847 93 838 71 z "},"o":{"ha":846,"x_min":24,"x_max":871,"o":"m 722 806 q 794 722 764 771 q 843 614 825 673 q 866 490 861 556 q 862 355 871 424 q 839 260 856 311 q 795 161 823 210 q 732 68 768 113 q 649 -11 695 23 q 548 -65 603 -45 q 429 -85 493 -85 q 288 -59 356 -85 q 169 24 220 -33 q 88 126 119 65 q 41 255 56 186 q 25 395 25 323 q 37 530 24 467 q 89 674 52 604 q 179 800 125 745 q 304 889 233 855 q 458 923 374 923 q 515 919 486 923 q 722 806 640 901 m 807 395 q 812 508 814 451 q 797 620 810 566 q 759 721 783 673 q 700 806 735 768 q 618 869 665 844 q 513 903 571 894 q 458 907 485 907 q 356 892 404 907 q 266 850 308 877 q 190 788 224 824 q 128 709 155 751 q 82 621 101 667 q 54 527 63 574 q 42 427 44 480 q 46 318 39 373 q 70 210 53 263 q 114 113 86 157 q 183 35 142 68 q 277 -14 223 1 q 391 -32 336 -32 q 506 -12 452 -32 q 603 40 559 7 q 682 117 647 73 q 743 208 718 160 q 785 303 769 255 q 807 395 801 351 m 431 509 q 450 503 441 509 q 465 488 458 496 q 475 468 471 479 q 479 449 479 458 q 465 415 479 429 q 431 401 450 401 q 397 415 411 401 q 382 449 382 429 q 386 468 382 458 q 396 488 390 479 q 412 503 403 496 q 431 509 420 509 m 462 453 q 447 440 454 450 q 438 419 440 431 q 455 431 448 422 q 462 453 462 439 z "},"p":{"ha":779,"x_min":24,"x_max":804,"o":"m 741 758 q 789 656 774 712 q 800 542 804 600 q 776 430 797 485 q 717 334 755 376 q 670 293 696 311 q 614 264 644 275 q 554 251 585 254 q 490 254 522 248 q 511 147 509 199 q 496 52 513 96 q 443 -25 479 8 q 349 -77 407 -58 q 266 -90 307 -90 q 224 -86 245 -90 q 182 -75 202 -83 q 144 -53 161 -66 q 115 -21 126 -40 q 103 -14 109 -18 q 94 -6 98 -9 q 61 51 75 11 q 39 146 47 91 q 28 267 31 201 q 26 401 24 332 q 33 538 27 470 q 48 665 39 606 q 70 771 57 724 q 100 844 83 817 q 134 878 111 863 q 187 905 156 893 q 256 923 218 916 q 336 931 294 930 q 433 926 384 931 q 528 907 481 921 q 618 868 575 892 q 696 804 661 843 q 741 758 724 783 m 666 382 q 723 474 703 422 q 746 581 743 526 q 735 689 749 635 q 690 785 722 742 q 625 846 665 821 q 538 886 585 871 q 439 908 491 901 q 336 915 387 915 q 260 907 296 913 q 195 890 224 901 q 145 866 166 880 q 114 835 124 852 q 86 765 98 810 q 64 662 73 720 q 50 538 55 604 q 42 404 44 471 q 43 272 41 336 q 54 154 46 208 q 74 61 61 100 q 104 6 86 22 q 160 -25 128 -14 q 228 -36 191 -36 q 307 -24 267 -36 q 399 30 362 -6 q 448 113 436 66 q 454 150 451 127 q 458 199 458 173 q 452 250 458 224 q 429 295 446 275 q 309 343 370 309 q 306 348 306 345 q 307 354 305 351 q 311 357 308 356 q 318 357 314 359 q 494 304 410 304 q 588 324 545 304 q 666 382 631 344 m 424 638 q 459 628 443 638 q 488 600 476 618 q 490 594 490 597 q 486 589 490 591 q 480 587 484 587 q 475 591 477 587 q 425 621 454 621 q 396 612 410 621 q 373 587 382 603 q 362 585 369 581 q 359 596 355 589 q 388 626 370 615 q 424 638 405 637 z "},"q":{"ha":873,"x_min":21,"x_max":893,"o":"m 808 1 q 862 -73 852 -31 q 864 -95 864 -83 q 859 -121 864 -107 q 844 -150 854 -135 q 814 -180 833 -165 q 717 -219 765 -219 q 662 -205 687 -219 q 618 -163 636 -191 q 580 -126 596 -149 q 557 -72 564 -102 q 507 -84 532 -80 q 452 -87 481 -87 q 375 -80 414 -87 q 301 -58 337 -73 q 234 -20 266 -43 q 176 33 202 2 q 158 50 167 41 q 142 66 149 58 q 85 149 109 103 q 46 248 60 195 q 26 358 31 300 q 27 475 21 416 q 74 649 37 568 q 169 790 111 730 q 299 885 226 850 q 456 923 373 920 q 600 900 532 926 q 720 821 667 874 l 729 812 q 739 802 734 808 q 749 792 744 797 q 758 783 754 788 q 859 621 824 718 q 893 407 893 524 q 878 278 893 336 q 842 176 863 220 q 796 101 821 132 q 752 50 772 69 q 808 1 788 29 m 766 -130 q 808 -39 819 -87 q 793 -7 804 -22 q 764 22 781 9 q 725 45 747 35 q 679 61 703 56 q 672 67 673 62 q 676 76 671 73 q 688 86 676 77 q 719 116 701 96 q 758 166 736 136 q 797 237 779 197 q 827 330 814 278 q 839 444 839 381 q 806 652 839 558 q 709 810 772 746 q 598 882 661 858 q 456 907 536 907 q 306 870 377 904 q 180 778 235 836 q 88 642 124 720 q 43 474 52 564 q 42 360 37 416 q 61 253 47 304 q 99 157 75 201 q 154 77 122 113 q 269 -5 203 22 q 414 -33 335 -33 q 502 -21 459 -33 q 585 19 545 -9 q 596 18 591 22 q 596 6 602 12 l 567 -24 q 576 -80 568 -54 q 600 -124 585 -106 q 635 -154 614 -143 q 679 -165 655 -165 q 766 -130 721 -165 m 452 507 q 472 501 463 507 q 487 486 481 495 q 497 466 494 477 q 501 446 501 456 q 487 412 501 427 q 452 398 473 398 q 418 412 433 398 q 404 446 404 427 q 408 466 404 456 q 418 486 412 477 q 433 501 425 495 q 452 507 442 507 m 460 415 q 479 429 473 418 q 484 452 486 439 q 468 438 475 448 q 460 415 461 427 z "},"r":{"ha":861,"x_min":24,"x_max":886,"o":"m 879 111 q 873 32 886 68 q 825 -33 859 -5 q 766 -66 800 -54 q 695 -77 732 -77 q 629 -65 659 -77 q 535 5 577 -44 q 458 96 495 37 q 433 -22 464 12 q 401 -47 421 -35 q 357 -66 382 -58 q 304 -79 332 -75 q 248 -84 277 -84 q 168 -71 201 -84 q 121 -29 142 -60 q 54 79 77 -4 q 35 170 42 119 q 26 275 28 220 q 25 388 24 330 q 30 500 26 446 q 40 606 34 555 q 53 696 45 656 q 67 764 60 736 q 82 802 75 792 q 135 853 102 831 q 208 892 167 876 q 296 917 248 909 q 397 926 345 926 q 495 918 448 926 q 585 894 543 909 q 663 853 627 878 q 724 798 698 829 q 802 694 778 753 q 821 599 821 648 q 798 501 820 550 q 778 469 791 486 q 746 436 765 452 q 702 405 727 419 q 648 380 677 391 q 717 340 684 363 q 779 284 750 317 q 879 111 861 214 m 777 18 q 819 75 807 42 q 825 146 831 108 q 782 252 814 208 q 708 325 749 296 q 624 373 667 355 q 547 404 581 391 q 533 402 540 403 q 518 402 526 402 q 409 425 461 402 q 404 430 406 427 q 404 436 403 433 q 409 440 406 438 q 415 440 412 443 q 519 418 466 418 q 597 431 560 418 q 665 462 635 443 q 715 503 694 481 q 745 545 736 526 q 765 636 764 591 q 749 726 766 682 q 683 816 727 776 q 578 878 639 856 q 494 901 540 893 q 399 909 448 909 q 302 901 349 909 q 216 877 255 892 q 145 841 176 862 q 96 792 115 819 q 78 739 87 781 q 61 636 69 697 q 47 502 53 576 q 41 353 41 429 q 47 208 41 278 q 69 83 54 138 q 136 -18 94 -1 q 169 -27 151 -24 q 210 -30 188 -30 q 262 -26 236 -30 q 312 -14 289 -22 q 354 4 335 -6 q 383 27 372 15 q 400 65 396 41 q 405 114 405 88 q 401 163 405 139 q 396 201 398 186 q 394 217 395 213 q 394 223 393 221 q 401 230 395 229 q 409 225 406 230 q 415 214 412 220 q 422 201 418 208 q 454 139 437 171 q 492 77 471 106 q 538 24 513 47 q 597 -12 564 1 q 626 -20 610 -18 q 658 -23 642 -23 q 722 -12 690 -23 q 777 18 753 -1 m 420 650 q 388 641 404 650 q 363 616 373 631 q 351 613 359 610 q 348 618 349 614 q 349 625 347 621 q 380 655 361 644 q 420 667 399 666 q 491 629 464 667 q 490 617 495 623 q 484 616 488 615 q 478 619 480 616 q 452 642 467 634 q 420 650 438 650 z "},"s":{"ha":785,"x_min":24,"x_max":813,"o":"m 804 271 q 801 180 813 227 q 756 89 789 134 q 694 22 728 52 q 620 -30 660 -7 q 537 -66 581 -52 q 450 -85 494 -81 q 361 -85 406 -90 q 272 -65 315 -80 q 189 -24 229 -50 q 118 36 149 1 q 76 78 94 56 q 47 125 58 100 q 25 219 26 172 q 41 311 24 267 q 85 381 57 349 q 149 434 113 412 q 108 491 128 454 q 83 576 88 528 q 83 622 81 597 q 95 675 85 646 q 123 734 104 703 q 172 797 141 765 q 233 848 199 825 q 303 887 267 871 q 379 911 340 903 q 456 920 418 920 q 526 913 490 920 q 596 894 562 907 q 662 860 631 881 q 715 811 692 840 q 786 714 766 772 q 799 647 798 681 q 793 582 800 612 q 776 526 787 551 q 752 488 765 502 q 657 452 718 452 q 724 393 696 426 q 804 271 788 340 m 705 136 q 747 221 736 178 q 749 304 759 264 q 706 387 739 349 q 621 454 673 425 q 577 472 605 463 q 520 490 550 481 q 482 502 500 496 q 447 514 463 508 q 419 527 431 520 q 400 540 407 533 q 384 561 389 551 q 376 579 378 570 q 375 595 374 588 q 376 607 375 602 q 392 632 380 621 q 420 644 404 644 q 454 629 437 644 q 471 598 467 616 q 472 562 476 581 q 479 553 472 561 q 507 534 486 545 q 562 513 532 521 q 618 506 591 506 q 702 537 673 506 q 722 569 711 547 q 739 618 732 590 q 745 680 745 647 q 732 747 745 713 q 689 815 718 786 q 622 864 659 845 q 541 893 584 884 q 456 903 498 903 q 382 895 420 903 q 310 871 345 886 q 242 834 275 856 q 184 785 210 812 q 137 726 155 755 q 111 670 119 697 q 100 620 102 644 q 100 578 98 597 q 110 530 102 553 q 127 490 117 508 q 150 457 138 471 q 174 435 162 444 q 210 413 191 423 q 249 394 229 404 q 296 370 273 382 q 340 338 320 357 q 357 314 353 326 q 361 294 361 303 q 357 278 360 285 q 351 269 353 272 q 339 258 347 263 q 323 251 332 253 q 306 249 315 248 q 290 255 297 250 q 280 264 286 258 q 271 282 274 270 q 270 312 269 294 q 283 359 272 331 q 263 369 273 364 q 241 379 253 374 q 201 399 222 389 q 163 423 181 410 q 100 374 128 404 q 57 307 73 345 q 41 225 41 269 q 62 132 41 180 q 121 54 82 87 q 209 0 161 20 q 310 -29 258 -21 q 410 -31 363 -37 q 494 -14 452 -27 q 574 22 536 0 q 645 72 612 43 q 705 136 678 101 m 456 589 q 433 571 440 581 q 433 538 425 562 q 462 527 446 532 q 496 515 478 521 q 494 523 495 517 q 480 531 488 526 q 467 542 473 536 q 458 554 461 547 q 456 566 454 560 q 456 589 458 576 m 338 279 q 341 309 349 292 l 335 313 q 328 289 330 300 q 324 269 325 278 q 338 279 332 271 z "},"t":{"ha":876,"x_min":24,"x_max":907,"o":"m 905 633 q 906 588 907 612 q 898 539 905 564 q 878 491 891 515 q 844 448 865 467 q 696 393 789 396 q 728 303 718 358 q 733 177 738 248 q 714 82 730 129 q 671 -3 699 35 q 608 -63 644 -40 q 526 -85 571 -85 l 444 -85 q 363 -67 399 -85 q 298 -14 326 -50 q 229 76 254 18 q 199 214 204 134 q 220 399 191 329 q 125 448 163 412 q 116 458 120 452 q 106 469 111 463 q 96 477 101 473 q 87 485 92 481 q 54 528 66 505 q 34 577 41 552 q 26 626 27 602 q 27 670 24 650 q 40 732 31 701 q 66 792 49 764 q 113 844 84 820 q 184 886 141 868 q 289 913 228 903 q 431 924 349 924 l 463 924 q 594 915 537 924 q 694 892 651 907 q 766 856 736 877 q 815 810 795 836 q 856 769 840 791 q 882 723 872 747 q 897 677 892 700 q 905 633 902 654 m 679 216 q 672 344 684 288 q 637 430 661 399 q 604 432 621 430 q 569 437 587 433 q 562 446 562 439 q 572 453 562 453 q 611 448 592 450 q 648 446 630 446 q 795 497 741 446 q 826 537 814 515 q 844 583 838 559 q 851 628 850 606 q 850 668 852 650 q 839 727 847 698 q 813 783 830 756 q 769 832 796 810 q 700 872 741 855 q 600 898 658 888 q 463 907 541 907 l 431 907 q 294 898 353 907 q 194 872 236 888 q 125 832 153 855 q 81 783 98 810 q 55 727 64 756 q 43 668 47 698 q 42 628 41 650 q 50 583 43 606 q 68 537 56 559 q 99 497 80 515 q 246 446 153 446 q 283 448 264 446 q 322 453 302 450 q 331 446 330 453 q 325 437 333 439 q 290 432 307 433 q 256 429 273 430 q 221 344 233 399 q 215 216 210 288 q 220 172 216 197 q 231 118 223 146 q 253 64 239 91 q 287 16 267 37 q 337 -19 308 -5 q 406 -32 366 -32 l 488 -32 q 563 -10 529 -32 q 622 46 597 12 q 661 126 646 81 q 679 216 676 170 z "},"u":{"ha":857,"x_min":22,"x_max":878,"o":"m 779 846 q 827 775 806 818 q 859 679 847 732 q 874 564 871 626 q 870 435 878 502 q 844 300 863 369 q 795 164 826 231 q 733 60 769 106 q 655 -16 698 15 q 564 -64 612 -47 q 463 -80 515 -80 q 193 35 292 -80 q 111 134 145 76 q 62 245 82 183 q 32 376 42 308 q 23 516 22 445 q 36 652 24 587 q 73 774 49 718 q 136 872 98 831 q 188 912 159 899 q 247 926 216 926 q 307 911 279 926 q 356 866 334 895 q 433 742 410 828 q 441 697 439 722 q 446 644 444 672 q 459 744 450 694 q 490 833 469 793 q 554 906 515 880 q 635 932 592 932 q 703 914 673 932 q 756 867 732 895 q 779 846 767 859 m 743 209 q 791 342 772 275 q 816 474 809 409 q 820 599 823 538 q 806 711 817 659 q 774 804 794 763 q 729 873 755 846 q 635 916 688 916 q 562 892 597 916 q 505 825 528 868 q 482 767 491 799 q 468 702 473 735 q 461 636 463 669 q 457 574 458 603 q 451 499 454 524 q 431 474 447 474 q 413 485 420 474 q 402 516 406 496 q 396 567 398 537 q 393 633 395 596 q 389 711 391 673 q 380 775 387 749 q 328 874 363 839 q 247 909 293 909 q 195 897 220 909 q 147 861 169 885 q 87 767 111 822 q 51 647 63 711 q 39 514 39 583 q 48 379 38 446 q 77 251 58 312 q 125 142 96 191 q 425 -26 224 -26 q 521 -10 475 -26 q 608 36 567 5 q 683 109 648 66 q 743 209 717 153 z "},"v":{"ha":949,"x_min":20,"x_max":970,"o":"m 928 822 q 964 721 959 780 q 949 599 970 663 q 888 452 926 530 q 803 299 850 375 q 704 154 756 223 q 600 32 651 85 q 501 -53 548 -21 q 417 -84 454 -84 q 328 -24 377 -84 q 268 40 298 -2 q 210 132 238 81 q 155 237 181 182 q 109 339 130 291 q 75 424 89 387 q 56 475 60 460 q 28 586 37 533 q 21 685 20 638 q 35 771 23 731 q 69 841 47 810 q 136 899 97 879 q 220 920 175 920 q 306 899 266 920 q 366 847 340 882 q 469 620 449 787 q 500 709 483 665 q 539 792 517 754 q 588 859 562 830 q 644 900 614 887 q 756 924 703 924 q 799 920 781 924 q 833 906 818 915 q 863 885 849 897 q 892 858 877 873 q 928 822 913 844 m 895 642 q 910 756 915 701 q 878 850 905 811 q 755 907 836 907 q 650 884 705 907 q 595 844 621 872 q 550 778 570 816 q 512 696 529 741 q 483 608 496 652 q 460 522 470 564 q 445 449 451 481 q 436 397 439 416 q 433 376 433 377 q 430 371 433 373 q 424 370 427 370 q 419 371 421 370 q 416 377 416 373 q 418 416 416 390 q 421 487 420 446 q 421 574 423 528 q 414 667 420 620 q 394 757 408 715 q 357 832 380 799 q 298 884 334 866 q 220 903 260 903 q 143 885 179 903 q 83 831 108 866 q 37 683 40 772 q 71 481 35 593 q 91 428 78 460 q 120 355 103 395 q 157 271 137 315 q 200 184 178 227 q 245 103 222 142 q 292 34 269 64 q 337 -13 315 5 q 379 -31 359 -31 q 455 -1 411 -31 q 549 80 499 29 q 650 197 598 130 q 748 339 701 264 q 833 491 795 414 q 895 642 871 569 z "},"w":{"ha":1074,"x_min":21,"x_max":1095,"o":"m 1033 821 q 1057 790 1045 808 q 1078 746 1069 771 q 1091 688 1086 720 q 1092 615 1095 656 q 1085 552 1090 593 q 1073 457 1081 510 q 1052 343 1065 404 q 1021 223 1039 283 q 979 108 1003 163 q 923 11 954 53 q 852 -56 891 -31 q 764 -81 812 -81 q 621 -10 677 -81 q 555 71 583 18 q 529 17 546 44 q 487 -33 511 -11 q 429 -69 462 -55 q 355 -83 396 -83 q 292 -75 325 -83 q 209 -15 246 -62 q 161 36 182 5 q 123 109 140 68 q 94 196 106 149 q 71 294 81 243 q 53 395 61 344 q 38 494 45 446 q 26 586 31 538 q 24 681 21 633 q 43 773 28 728 q 90 856 58 818 q 156 906 119 888 q 235 924 193 924 q 300 912 267 924 q 365 861 337 899 q 453 699 426 819 q 457 705 455 703 q 462 711 459 708 q 518 738 484 738 q 571 713 551 738 q 577 705 574 709 q 583 695 580 701 q 602 684 593 691 q 616 666 610 676 q 632 721 623 693 q 655 776 642 749 q 686 830 668 804 q 727 880 703 856 q 780 913 749 901 q 845 924 810 924 q 927 907 888 924 q 995 859 966 890 l 1007 844 q 1021 833 1015 839 q 1033 821 1027 827 m 1038 654 q 1029 764 1043 715 q 983 848 1015 813 q 921 892 957 877 q 845 908 884 908 q 786 898 813 908 q 739 868 758 887 q 686 799 707 836 q 650 722 665 762 q 626 637 635 681 q 607 546 616 593 q 604 531 606 538 q 601 515 602 523 q 593 509 598 509 q 585 518 583 510 q 589 558 587 534 q 588 610 590 583 q 579 662 586 637 q 559 703 572 686 q 518 722 543 722 q 475 701 492 722 q 454 661 461 685 q 443 612 446 637 q 440 564 440 587 q 444 525 441 540 q 443 519 445 522 q 435 515 440 516 q 427 522 429 515 q 424 546 426 532 q 421 577 422 559 q 415 632 418 602 q 406 696 412 663 q 391 761 400 728 q 369 820 382 793 q 338 867 356 847 q 294 897 319 888 q 235 907 266 907 q 163 891 197 907 q 103 845 129 876 q 58 767 73 810 q 41 679 44 725 q 42 587 37 633 q 54 496 47 540 q 71 390 62 446 q 91 280 79 334 q 118 175 102 225 q 153 83 133 124 q 199 15 173 43 q 258 -21 225 -12 q 317 -29 289 -29 q 401 -9 366 -29 q 459 38 436 10 q 495 97 483 66 q 511 148 508 127 q 514 170 512 162 q 524 178 517 178 q 534 172 531 178 q 542 151 536 166 q 552 119 546 137 q 569 81 559 100 q 592 42 578 61 q 626 7 606 22 q 670 -18 645 -8 q 726 -27 694 -27 q 809 -3 772 -27 q 876 63 846 22 q 928 158 905 104 q 969 271 951 212 q 999 388 987 329 q 1019 499 1011 448 q 1031 592 1027 551 q 1038 654 1036 632 z "},"x":{"ha":920,"x_min":20,"x_max":945,"o":"m 899 861 q 940 768 935 821 q 921 651 945 715 q 842 515 896 587 q 707 366 788 443 q 752 307 728 339 q 798 238 777 274 q 835 165 819 203 q 857 92 851 128 q 857 24 863 56 q 827 -35 850 -9 q 779 -69 807 -57 q 718 -81 750 -81 q 684 -78 703 -81 q 645 -65 665 -75 q 601 -39 624 -56 q 555 5 578 -22 q 512 49 533 24 q 473 105 492 74 q 418 46 452 77 q 342 -11 383 16 q 256 -55 300 -37 q 171 -72 212 -72 q 115 -56 138 -69 q 78 -19 91 -43 q 33 35 45 0 q 30 125 20 74 q 66 231 40 177 q 129 337 92 286 q 209 427 167 389 q 126 527 159 474 q 77 632 94 581 q 58 729 60 683 q 70 809 56 775 q 92 849 78 829 q 125 884 106 869 q 167 910 144 900 q 217 920 191 920 q 249 916 231 920 q 285 902 266 912 q 326 876 304 892 q 370 833 347 859 q 460 722 416 793 q 528 805 490 766 q 609 872 567 844 q 694 917 652 901 q 773 934 736 934 q 861 899 827 934 l 869 889 q 876 880 873 884 q 899 861 890 871 m 777 14 q 804 68 798 37 q 803 132 809 98 q 781 201 796 165 q 744 270 765 236 q 701 336 724 304 q 657 392 677 367 q 638 375 649 385 q 617 358 628 366 q 596 342 606 349 q 579 331 586 335 q 573 330 576 330 q 568 334 570 330 q 570 345 564 340 q 691 445 638 393 q 782 550 744 498 q 843 653 820 603 q 874 748 866 704 q 876 828 883 793 q 848 887 869 864 q 773 918 821 918 q 692 899 736 918 q 605 849 648 881 q 524 777 562 818 q 459 688 486 735 q 452 684 457 684 q 444 688 447 684 q 377 797 410 755 q 316 863 345 839 q 262 895 287 886 q 217 903 237 903 q 173 895 193 903 q 135 871 152 886 q 105 839 118 857 q 85 803 92 821 q 74 727 73 771 q 93 634 76 683 q 142 534 110 585 q 222 437 174 483 q 255 464 237 451 q 285 486 273 477 q 296 483 290 488 q 297 477 298 480 q 294 471 297 473 q 273 457 285 466 q 248 438 260 448 q 225 419 236 429 q 208 404 214 410 q 136 318 170 366 q 78 219 102 269 q 46 122 55 169 q 48 41 37 75 q 85 -4 58 10 q 143 -18 112 -18 q 202 -7 171 -18 q 263 21 233 3 q 323 60 294 38 q 375 103 352 81 q 415 145 399 125 q 437 179 431 165 q 445 184 439 183 q 452 179 450 184 q 515 71 483 112 q 578 8 547 30 q 635 -21 608 -14 q 680 -28 661 -28 q 733 -17 708 -28 q 777 14 759 -6 z "},"y":{"ha":871,"x_min":20,"x_max":893,"o":"m 805 858 q 836 829 820 846 q 864 784 851 811 q 885 721 877 758 q 893 635 893 684 q 887 530 893 585 q 861 424 881 475 q 803 328 841 372 q 701 253 765 283 q 681 235 688 247 q 671 206 673 222 q 668 170 668 190 q 669 129 668 151 q 669 83 669 106 q 665 37 669 60 q 653 -6 662 15 q 629 -43 645 -26 q 477 -90 583 -90 q 322 -26 363 -90 q 287 7 300 -12 q 267 49 274 26 q 258 95 260 71 q 254 142 256 119 q 250 197 253 171 q 237 243 247 222 q 186 279 209 260 q 144 320 163 298 q 50 445 80 374 q 26 600 20 516 q 34 701 29 652 q 53 792 39 750 q 93 865 66 833 q 165 916 119 897 q 232 927 194 927 q 278 923 254 927 q 326 910 302 919 q 370 886 349 901 q 406 849 391 871 q 450 801 433 829 q 469 736 467 772 q 488 833 478 795 q 510 872 494 854 q 548 903 526 890 q 598 924 571 916 q 656 932 626 932 q 739 913 701 932 q 805 858 777 895 m 656 305 q 753 377 717 334 q 808 469 789 420 q 833 571 827 518 q 839 673 839 624 q 828 769 839 729 q 801 836 818 809 q 763 879 784 863 q 722 903 743 895 q 684 913 702 911 q 656 916 667 916 q 604 909 629 916 q 558 890 579 902 q 524 863 538 878 q 505 829 509 847 q 485 730 492 783 q 473 626 478 677 q 465 560 469 587 q 458 515 462 532 q 448 489 454 497 q 434 481 442 481 q 420 487 426 481 q 406 553 406 503 q 411 678 406 604 q 414 737 413 710 q 414 779 416 764 q 394 838 411 813 q 351 879 376 863 q 294 903 325 895 q 232 911 262 911 q 170 901 197 911 q 104 854 128 884 q 67 785 80 825 q 50 699 55 746 q 42 599 45 651 q 80 421 36 500 q 216 290 123 343 q 244 263 234 279 q 260 229 254 248 q 268 188 266 210 q 271 144 270 166 q 278 78 273 111 q 298 21 282 46 q 348 -20 315 -5 q 439 -36 380 -36 q 579 6 538 -36 q 601 39 593 21 q 611 79 608 58 q 614 122 614 100 q 614 166 614 144 q 613 210 613 189 q 617 250 614 232 q 630 283 621 269 q 656 305 639 297 z "},"z":{"ha":886,"x_min":0,"x_max":906,"o":"m 882 260 q 901 205 895 234 q 905 146 906 176 q 895 89 903 117 q 871 37 886 61 q 821 -12 854 8 q 748 -45 788 -32 q 664 -67 708 -59 q 578 -79 619 -75 q 503 -84 537 -83 q 449 -85 469 -85 q 365 -83 406 -85 q 289 -75 324 -80 q 228 -64 254 -71 q 186 -50 201 -58 q 105 16 136 -23 q 34 234 0 99 q 58 285 41 261 q 100 329 76 309 q 152 365 123 349 q 209 396 180 382 q 178 399 191 397 q 161 405 165 401 q 134 425 146 413 q 111 450 122 436 q 48 530 70 479 q 24 646 26 581 q 30 716 24 682 q 48 778 36 749 q 77 829 60 807 q 115 865 94 852 q 171 891 138 880 q 245 911 204 903 q 332 924 286 920 q 429 928 379 928 q 525 924 475 928 q 622 909 575 919 q 708 882 669 899 q 774 842 748 866 q 798 817 785 831 q 812 804 806 810 q 864 732 847 771 q 882 653 880 693 q 874 574 884 612 q 844 503 863 535 q 734 400 812 450 q 822 334 789 377 q 882 260 861 304 m 819 83 q 841 131 833 105 q 850 185 849 157 q 847 239 852 212 q 829 291 842 267 q 756 370 804 342 q 645 406 709 399 q 565 366 606 385 q 485 330 524 347 q 423 302 451 315 q 375 277 395 289 q 369 276 372 275 q 363 280 365 277 q 363 286 362 281 q 366 291 363 290 q 416 316 387 303 q 479 345 444 330 q 569 386 522 364 q 659 433 616 408 q 736 487 701 458 q 791 549 772 515 q 820 615 810 579 q 828 689 830 651 q 810 763 826 726 q 762 830 795 800 q 709 864 743 849 q 633 889 676 879 q 537 905 589 900 q 429 911 486 911 q 334 907 380 911 q 249 895 289 903 q 177 876 210 887 q 123 852 145 865 q 89 819 104 840 q 62 771 73 798 q 46 712 52 744 q 41 646 40 680 q 66 531 42 581 q 131 456 90 481 q 160 450 136 453 q 221 448 184 448 q 253 448 234 448 q 293 451 271 449 q 339 457 315 453 q 387 467 363 461 q 484 526 463 488 q 489 530 486 529 q 495 530 492 531 q 498 518 500 526 q 391 452 474 474 q 354 439 372 448 q 317 424 336 431 q 241 392 283 410 q 159 351 198 374 q 90 297 120 327 q 50 230 60 267 q 44 148 38 184 q 67 83 50 111 q 108 36 83 56 q 157 2 132 16 q 197 -12 171 -5 q 257 -23 223 -18 q 332 -30 292 -28 q 415 -33 372 -33 q 467 -32 434 -33 q 539 -26 500 -31 q 621 -15 578 -22 q 702 5 663 -7 q 771 37 740 18 q 819 83 802 56 z "},"A":{"ha":814,"x_min":20,"x_max":838,"o":"m 828 525 q 834 455 831 498 q 838 361 838 412 q 833 256 838 311 q 818 148 829 201 q 788 50 807 96 q 741 -29 770 3 q 618 -87 691 -87 q 511 -27 555 -87 q 430 94 462 6 q 229 -84 393 -77 q 172 -74 196 -84 q 130 -43 148 -64 q 117 -28 124 -38 q 103 -17 110 -22 q 92 -5 97 -12 q 35 139 50 41 q 34 376 20 237 q 53 505 40 439 q 86 631 65 570 q 136 746 106 692 q 208 841 166 800 q 304 904 250 881 q 429 928 359 928 q 514 919 475 928 q 585 896 553 911 q 643 861 617 881 q 689 816 669 840 q 749 750 724 787 q 789 675 773 713 q 815 597 806 636 q 828 525 824 558 m 691 19 q 736 95 719 50 q 765 192 754 140 q 779 297 775 243 q 783 400 783 351 q 780 492 783 450 q 774 561 777 534 q 758 642 768 601 q 730 723 747 684 q 686 796 712 762 q 623 856 660 830 q 539 896 587 881 q 429 911 491 911 q 310 888 362 911 q 218 826 258 865 q 149 735 178 787 q 100 623 120 682 q 68 499 80 563 q 50 375 56 436 q 50 144 37 239 q 104 5 64 50 q 140 -21 119 -12 q 191 -30 161 -30 q 276 -11 240 -28 q 337 40 313 6 q 373 125 361 73 q 389 248 386 176 q 391 264 390 259 q 399 269 392 269 q 406 265 405 269 q 411 244 408 260 q 580 -33 454 -33 q 691 19 646 -33 m 410 599 q 475 559 450 599 q 473 548 479 552 q 461 550 467 544 q 410 582 440 582 q 382 572 395 582 q 359 547 369 563 q 354 543 357 543 q 349 544 351 543 q 345 548 346 545 q 345 555 343 551 q 374 587 357 575 q 410 599 391 598 z "}}}
